<svg xmlns="http://www.w3.org/2000/svg" xmlns:xlink="http://www.w3.org/1999/xlink" xmlns:sketch="http://www.bohemiancoding.com/sketch/ns" width="1140px" height="635px" viewBox="0 0 1140 635" version="1.1"><!-- Generator: Sketch 3.0.4 (8053) - http://www.bohemiancoding.com/sketch --><title>Screen Shot 2014-07-09 at 11.03 + Imported Layers</title><desc>Created with Sketch.</desc><defs/><g id="Page-1" stroke="none" stroke-width="1" fill="none" fill-rule="evenodd" sketch:type="MSPage"><g id="New-User---Contact-List-13" sketch:type="MSArtboardGroup" transform="translate(-149.000000, -4522.000000)"><g id="Group-3" sketch:type="MSLayerGroup" transform="translate(149.000000, 4214.000000)"><g id="Screen-Shot-2014-07-09-at-11.03-+-Imported-Layers" transform="translate(0.000000, 309.000000)" sketch:type="MSShapeGroup"><g id="Screen-Shot-2014-07-09-at-11.03-+-Imported-Layers-2"><g id="Imported-Layers" fill="#BFBFC5"><path d="M152 44 C154.4 44 156.3 45.9 156.3 48.2 C156.3 50.6 154.4 52.4 152 52.4 C149.6 52.4 147.6 50.6 147.6 48.2 C147.6 45.9 149.6 44 152 44 M152 43.2 C149.1 43.2 146.7 45.4 146.7 48.2 C146.8 51 149.1 53.3 152 53.3 C154.9 53.3 157.2 51 157.2 48.2 C157.2 45.4 154.9 43.2 152 43.2 " id="Fill-1"/><path d="M169.4 44 C171.8 44 173.7 45.9 173.7 48.2 C173.8 50.6 171.8 52.4 169.4 52.4 C167 52.4 165 50.6 165 48.2 C165 45.9 167 44 169.4 44 M169.4 43.2 C166.5 43.2 164.2 45.4 164.2 48.2 C164.2 51 166.5 53.3 169.4 53.3 C172.3 53.3 174.6 51 174.6 48.2 C174.6 45.4 172.3 43.2 169.4 43.2 " id="Fill-2"/><path d="M186.8 44 C189.2 44 191.2 45.9 191.2 48.2 C191.2 50.6 189.2 52.4 186.8 52.4 C184.4 52.4 182.4 50.6 182.4 48.2 C182.5 45.9 184.4 44 186.8 44 M186.8 43.2 C183.9 43.2 181.6 45.4 181.6 48.2 C181.6 51 183.9 53.3 186.8 53.3 C189.7 53.3 192 51 192 48.2 C192 45.4 189.7 43.2 186.8 43.2 " id="Fill-3"/><path d="M136.1 91.9 L1005.3 91.9 L1005.3 92.7 L136.1 92.7 L136.1 91.9 Z" id="Fill-4"/><path d="M136.1 61.7 L199.8 61.7 L199.8 62.5 L136.1 62.5 L136.1 61.7 Z" id="Fill-5"/><path d="M380.9 61.7 L1005.3 61.7 L1005.3 62.5 L380.9 62.5 L380.9 61.7 Z" id="Fill-6"/><path d="M380.9 62.5 C378.6 62.5 377.6 60 375.7 55 C375.4 54 374.9 52.9 374.4 51.6 C371.6 44.4 370.4 42.3 367.9 42.3 L212.9 42.3 C210.3 42.3 209.1 44.4 206.3 51.6 C205.8 52.9 205.4 54 205 55 C203.1 60 202.2 62.5 199.8 62.5 L199.8 61.7 C201.6 61.7 202.4 59.3 204.2 54.7 C204.6 53.7 205 52.6 205.4 51.3 C208.3 44.2 209.6 41.5 212.9 41.5 L367.9 41.5 C371.1 41.5 372.4 44.2 375.3 51.3 C375.8 52.6 376.2 53.7 376.5 54.7 C378.3 59.3 379.2 61.7 380.9 61.7 L380.9 62.5 " id="Fill-7"/><path d="M150.6 72.6 C150.7 72.6 150.8 72.6 150.9 72.7 C151.1 72.8 151.1 72.9 151.1 73 C151.1 73.1 151 73.2 150.9 73.3 L148.7 75.5 C148.5 75.7 148.4 76.1 148.5 76.4 C148.7 76.7 149 76.9 149.3 76.9 L156.7 76.9 C157 76.9 157.2 77.1 157.2 77.3 C157.2 77.6 157 77.7 156.7 77.7 L149.3 77.7 C149 77.7 148.6 78 148.5 78.3 C148.4 78.6 148.5 78.9 148.7 79.2 L151 81.3 C151.1 81.4 151.1 81.6 151.1 81.6 C151.1 81.7 151 81.8 150.9 81.9 C150.9 82 150.7 82.1 150.6 82.1 C150.5 82.1 150.4 82 150.3 81.9 L145.9 77.6 C145.8 77.5 145.7 77.4 145.7 77.3 C145.7 77.2 145.8 77.1 145.9 77 L150.3 72.7 C150.4 72.6 150.6 72.6 150.6 72.6 M150.6 71.7 C150.3 71.7 150 71.9 149.7 72.1 L145.3 76.4 C145 76.7 144.9 77 144.9 77.3 C144.9 77.7 145 78 145.2 78.2 L149.7 82.5 C150 82.8 150.3 82.9 150.6 82.9 C151 82.9 151.3 82.8 151.5 82.5 C152.1 82 152.1 81.2 151.5 80.7 L149.3 78.6 L156.7 78.6 C157.5 78.6 158 78 158 77.3 C158 76.6 157.4 76.1 156.7 76.1 L149.3 76.1 L151.6 73.9 C152.1 73.4 152.1 72.6 151.5 72.1 C151.3 71.9 151 71.7 150.6 71.7 " id="Fill-9"/><path d="M176.6 72.6 C176.7 72.6 176.8 72.6 176.9 72.7 L181.4 77 C181.5 77.1 181.5 77.2 181.5 77.3 C181.5 77.4 181.5 77.5 181.4 77.6 L176.9 81.9 C176.9 82 176.7 82.1 176.6 82.1 C176.5 82.1 176.4 82 176.3 81.9 C176.2 81.8 176.2 81.7 176.2 81.6 C176.2 81.6 176.2 81.4 176.3 81.3 L178.6 79.2 C178.8 78.9 178.9 78.6 178.7 78.3 C178.6 78 178.3 77.7 177.9 77.7 L170.5 77.7 C170.3 77.7 170.1 77.6 170.1 77.3 C170.1 77.1 170.3 76.9 170.5 76.9 L177.9 76.9 C178.3 76.9 178.6 76.7 178.7 76.4 C178.9 76.1 178.8 75.7 178.5 75.5 L176.3 73.3 C176.2 73.2 176.2 73.1 176.2 73 C176.2 72.9 176.2 72.8 176.3 72.7 C176.4 72.6 176.5 72.6 176.6 72.6 M176.6 71.7 C176.3 71.7 175.9 71.9 175.7 72.1 C175.2 72.6 175.2 73.4 175.7 73.9 L177.9 76.1 L170.5 76.1 C169.8 76.1 169.2 76.6 169.2 77.3 C169.2 78 169.8 78.6 170.5 78.6 L177.9 78.6 L175.7 80.7 C175.2 81.2 175.2 82 175.7 82.5 C176 82.8 176.3 82.9 176.6 82.9 C177 82.9 177.3 82.8 177.5 82.5 L182 78.2 C182.3 78 182.4 77.7 182.4 77.3 C182.4 77 182.2 76.7 182 76.4 L177.6 72.1 C177.3 71.9 176.9 71.7 176.6 71.7 " id="Fill-10"/><path d="M200.2 71.7 C201.7 71.7 203 72.3 204.1 73.2 C204.3 73.4 204.5 73.4 204.7 73.4 C204.9 73.4 205.1 73.4 205.3 73.2 L205.9 72.6 L205.9 76 L202.4 76 L203.5 75 C203.6 74.8 203.7 74.6 203.7 74.4 C203.7 74.1 203.6 73.9 203.4 73.8 C202.5 73 201.4 72.6 200.2 72.6 C197.6 72.6 195.4 74.6 195.4 77.2 C195.5 79.8 197.6 81.8 200.2 81.8 C201.7 81.8 203 81.2 203.9 80.2 C204 80.1 204.1 80 204.2 80 C204.3 80 204.4 80 204.5 80.1 C204.7 80.3 204.7 80.5 204.6 80.7 C203.5 82 201.9 82.7 200.2 82.7 C197.1 82.7 194.6 80.2 194.6 77.2 C194.6 74.2 197.1 71.7 200.2 71.7 M206.8 70.6 L204.7 72.6 C203.5 71.5 201.9 70.9 200.2 70.9 C196.6 70.9 193.7 73.7 193.7 77.2 C193.7 80.7 196.6 83.5 200.2 83.5 C202.2 83.5 204 82.7 205.2 81.3 C205.7 80.7 205.6 79.9 205.1 79.5 C204.9 79.3 204.5 79.2 204.2 79.2 C203.9 79.2 203.5 79.3 203.2 79.6 C202.5 80.5 201.4 81 200.2 81 C198.1 81 196.3 79.3 196.3 77.2 C196.3 75.1 198.1 73.4 200.2 73.4 C201.2 73.4 202.1 73.8 202.8 74.4 L200.3 76.8 L206.8 76.8 L206.8 70.6 " id="Fill-11"/><path d="M233.6 81.3 L229.7 77.5 C230.1 77 230.3 76.3 230.3 75.5 C230.3 73.4 228.5 71.7 226.4 71.7 C224.2 71.7 222.5 73.4 222.5 75.5 C222.5 77.6 224.2 79.3 226.4 79.3 C227.2 79.3 227.9 79.1 228.5 78.7 L232.4 82.5 C232.6 82.7 232.8 82.8 233 82.8 C233.2 82.8 233.4 82.7 233.6 82.5 C234 82.2 233.9 81.6 233.6 81.3 L233.6 81.3 ZM223.7 75.5 C223.7 74.1 224.9 72.9 226.4 72.9 C227.9 72.9 229.1 74.1 229.1 75.5 C229.1 77 227.9 78.1 226.4 78.1 C224.9 78.1 223.7 77 223.7 75.5 L223.7 75.5 Z" id="Fill-13"/><path d="M970.4 66.7 C971.3 66.7 972.1 67.5 972.1 68.4 L972.1 86.1 C972.1 87 971.3 87.8 970.3 87.8 L219 87.8 C218.1 87.8 217.3 87 217.3 86.1 L217.3 68.4 C217.3 67.5 218 66.7 219 66.7 L970.4 66.7 M970.4 65.9 L219 65.9 C217.6 65.9 216.4 67 216.4 68.4 L216.4 86.1 C216.4 87.5 217.6 88.6 219 88.6 L970.4 88.6 C971.8 88.6 973 87.5 973 86.1 L973 68.4 C973 67 971.8 65.9 970.3 65.9 " id="Fill-14"/><path d="M399.1 46.5 C400.5 46.5 401.3 47.6 401.6 48.4 L404.8 56.5 C405.1 57.2 405.1 57.8 405 58 C404.8 58.2 404.6 58.3 404.4 58.3 L385.2 58.3 C383.9 58.3 383.5 57.7 383.2 57.1 L379.4 48 C379.3 47.6 379.2 47.2 379.4 46.9 C379.7 46.7 380 46.5 380.2 46.5 L399.1 46.5 M399.1 45.7 L380.3 45.7 C379.3 45.7 377.9 46.6 378.6 48.3 L382.5 57.5 C382.8 58.3 383.5 59.1 385.2 59.1 L404.4 59.1 C405.4 59.1 406.5 58.3 405.6 56.2 L402.5 48.1 C401.9 46.9 400.9 45.7 399.1 45.7 " id="Fill-15"/><path d="M959.4 70.9 L961 75.2 L966.3 75.1 L962.9 78.7 L963.7 83.6 L959.4 80.6 L955.1 83.6 L955.9 78.7 L952.5 75.1 L957.8 75.2 L959.4 70.9 M966.3 75.1 L966.3 75.1 M959.4 70 C959 70 958.7 70.3 958.5 70.6 L957.2 74.3 L952.5 74.3 L952.5 74.3 C952.1 74.3 951.8 74.5 951.7 74.8 C951.5 75.1 951.6 75.5 951.8 75.7 L955 79 L954.3 83.4 C954.2 83.8 954.3 84.1 954.6 84.3 C954.8 84.4 954.9 84.4 955.1 84.4 C955.3 84.4 955.5 84.4 955.6 84.3 L959.4 81.6 L963.1 84.3 C963.3 84.4 963.5 84.4 963.6 84.4 C963.8 84.4 964 84.4 964.1 84.3 C964.4 84.1 964.6 83.8 964.5 83.4 L963.8 79 L966.9 75.7 C967.1 75.6 967.1 75.4 967.1 75.1 C967.2 74.7 966.8 74.3 966.3 74.3 L966.3 74.3 L966.3 74.3 L961.6 74.3 L960.2 70.6 C960.1 70.3 959.7 70 959.4 70 " id="Fill-16"/><path d="M988.8 47.3 C989 47.3 989.2 47.4 989.3 47.5 C989.6 47.8 989.6 48.2 989.3 48.5 L987.7 50.1 L989.2 51.5 L985.2 51.5 L985.2 47.7 L986.7 49.1 L987.3 48.5 L988.3 47.5 C988.4 47.4 988.6 47.3 988.8 47.3 M984.3 45.7 L984.3 52.4 L991.3 52.4 L988.9 50.1 L989.9 49.1 C990.6 48.5 990.5 47.5 989.9 46.9 C989.6 46.6 989.2 46.5 988.8 46.5 C988.4 46.5 988 46.6 987.7 46.9 L986.7 47.9 L984.3 45.7 " id="Fill-17"/><path d="M995.6 41.5 L995.6 45.3 L994.8 44.5 L994.2 43.9 L992.5 45.5 C992.4 45.6 992.2 45.7 992 45.7 C991.8 45.7 991.6 45.6 991.5 45.5 C991.2 45.2 991.2 44.7 991.5 44.5 L992.5 43.5 L993.1 42.9 L992.5 42.3 L991.7 41.5 L995.6 41.5 M996.5 40.6 L989.6 40.6 L991.9 42.9 L990.9 43.9 C990.3 44.5 990.2 45.4 990.9 46 C991.2 46.4 991.6 46.5 992 46.5 C992.4 46.5 992.8 46.4 993.1 46 L994.2 45.1 L996.5 47.3 L996.5 40.6 " id="Fill-18"/><path d="M993.9 72.6 C994.2 72.6 994.3 72.8 994.3 73.1 C994.3 73.3 994.1 73.5 993.9 73.5 L985.2 73.5 C984.9 73.5 984.7 73.3 984.7 73.1 C984.7 72.8 984.9 72.6 985.1 72.6 L993.9 72.6 M993.9 71.8 L985.2 71.8 C984.4 71.8 983.8 72.4 983.8 73.1 C983.9 73.8 984.4 74.3 985.1 74.3 L993.9 74.3 C994.6 74.3 995.2 73.8 995.2 73.1 C995.2 72.4 994.6 71.8 993.9 71.8 " id="Fill-19"/><path d="M993.9 76.9 C994.2 76.9 994.3 77 994.3 77.3 C994.3 77.5 994.1 77.7 993.9 77.7 L985.2 77.7 C984.9 77.7 984.7 77.5 984.7 77.3 C984.7 77 984.9 76.9 985.1 76.9 L993.9 76.9 M993.9 76 L985.2 76 C984.4 76 983.8 76.6 983.8 77.3 C983.9 78 984.4 78.5 985.1 78.5 L993.9 78.5 C994.6 78.5 995.2 78 995.2 77.3 C995.2 76.6 994.6 76 993.9 76 " id="Fill-20"/><path d="M993.9 81.1 C994.2 81.1 994.3 81.2 994.3 81.5 C994.3 81.7 994.1 81.9 993.9 81.9 L985.2 81.9 C984.9 81.9 984.7 81.7 984.7 81.5 C984.7 81.2 984.9 81.1 985.1 81.1 L993.9 81.1 M993.9 80.2 L985.2 80.2 C984.4 80.2 983.8 80.8 983.8 81.5 C983.9 82.2 984.4 82.7 985.1 82.7 L993.9 82.7 C994.6 82.7 995.2 82.2 995.2 81.5 C995.2 80.8 994.6 80.2 993.9 80.2 " id="Fill-21"/><path d="M365.9 50 L365 49.2 L362.6 51.5 L360.2 49.2 L359.3 50 L361.7 52.3 L359.3 54.7 L360.2 55.5 L362.6 53.2 L365 55.5 L365.9 54.7 L363.5 52.3 L365.9 50 " id="Fill-22"/></g><g id="Imported-Layers" fill="#BEBFC5"><path d="M1137.88472 598.2 L1032.57275 598.2 C1033.78942 594.8 1034.5 591.2 1034.5 587.4 L1034.46128 32.9 C1034.46128 14.5 1019 -0.5 999.9 -0.5 L140.296424 -0.5 C121.239186 -0.5 105.7 14.5 105.7 32.9 L105.734241 587.4 C105.734241 591.2 106.4 594.8 107.6 598.2 L2.14298729 598.2 C1.15287637 598.2 0.3 599 0.3 600 L0.347961748 617 C0.347961748 617.5 0.3 618.9 1.7 619.9 C1.97277452 620.1 2.3 620.3 2.7 620.6 C2.6638144 620.6 2.7 620.6 2.7 620.6 C10.5139795 625.8 30.2 633.5 52.3 633.5 L1087.76485 633.5 C1109.84096 633.5 1129.5 625.8 1137.4 620.6 C1137.37887 620.6 1137.4 620.6 1137.4 620.6 C1137.82958 620.3 1138.3 620 1138.7 619.7 C1139.69592 618.9 1139.7 617.7 1139.7 617.2 L1139.69592 600 C1139.69592 599 1138.8 598.2 1137.9 598.2 L1137.88472 598.2 Z M108.131604 587.4 L108.131604 32.9 C108.131604 15.8 122.6 1.9 140.3 1.9 L999.898495 1.9 C1017.63359 1.9 1032.1 15.8 1032.1 32.9 L1032.06391 587.4 C1032.06391 591.2 1031.3 594.9 1030 598.2 L935.92786 598.2 L935.80979 597.7 L932.989892 585.6 L1016.894 585.6 C1023.51372 585.6 1028.9 580.5 1028.9 574.1 L1028.88082 32.5 C1028.88082 17.3 1016.1 4.9 1000.3 4.9 L139.881081 4.9 C124.128009 4.9 111.3 17.3 111.3 32.5 L111.311706 574.1 C111.311706 580.5 116.7 585.6 123.3 585.6 L204.442666 585.6 L201.504098 598.2 L110.172359 598.2 C108.861002 594.9 108.1 591.2 108.1 587.4 L108.131604 587.4 Z M489.421999 598.2 L203.961395 598.2 L206.883181 585.7 L930.549377 585.7 L933.471163 598.2 L489.421999 598.2 L489.421999 598.2 Z M648.110049 600.5 C647.405224 604.3 643.6 610.6 636.9 610.6 L503.157091 610.6 C496.440879 610.6 492.6 604.3 491.9 600.5 L648.110049 600.5 L648.110049 600.5 Z M123.298521 583.3 C118.011137 583.3 113.7 579.2 113.7 574.1 L113.709069 32.5 C113.709069 18.6 125.5 7.2 139.9 7.2 L1000.31144 7.2 C1014.74237 7.2 1026.5 18.6 1026.5 32.5 L1026.48345 574.1 C1026.48345 579.2 1022.2 583.3 1016.9 583.3 L123.298521 583.3 L123.298521 583.3 Z M2.74532474 600.5 L489.514897 600.5 C490.210132 605.3 495 612.9 503.2 612.9 L636.892787 612.9 C645.083378 612.9 649.8 605.3 650.5 600.5 L1137.29856 600.5 L1137.29856 617.2 C1137.29856 617.5 1137.3 617.8 1137.2 617.8 C1136.91438 618 1136.6 618.2 1136.3 618.4 L3.71865412 618.4 C3.50289145 618.3 3.3 618.2 3.1 618 C2.86099751 617.8 2.7 617.6 2.7 617 L2.74532474 600.5 L2.74532474 600.5 Z M1087.76485 631.2 L52.2778409 631.2 C33.5951911 631.2 16.7 625.6 7.6 620.8 L1132.42172 620.8 C1123.31774 625.6 1106.4 631.2 1087.8 631.2 L1087.76485 631.2 Z" id="Fill-1"/><path d="M1002.79331 35.2 L137.215812 35.2 C135.560433 35.2 134.2 36.5 134.2 38.1 L134.219109 560.8 C134.219109 562.4 135.6 563.7 137.2 563.7 L1002.79331 563.7 C1004.44809 563.7 1005.8 562.4 1005.8 560.8 L1005.79001 38.1 C1005.79001 36.5 1004.4 35.2 1002.8 35.2 L1002.79331 35.2 Z M137.215812 38.1 L1002.79331 38.1 L1002.79331 560.8 L137.215812 560.8 L137.215812 38.1 Z" id="Fill-2"/><path d="M570.252089 27.4 C572.900576 27.4 575 25.3 575 22.7 C575.046815 20.2 572.9 18.1 570.3 18.1 C567.604202 18.1 565.5 20.2 565.5 22.7 C565.457363 25.3 567.6 27.4 570.3 27.4 L570.252089 27.4 Z M570.252089 20.4 C571.574235 20.4 572.6 21.5 572.6 22.7 C572.649452 24 571.6 25.1 570.3 25.1 C568.930543 25.1 567.9 24 567.9 22.7 C567.854726 21.5 568.9 20.4 570.3 20.4 L570.252089 20.4 Z" id="Fill-3"/></g></g></g></g></g></g></svg>