<?xml version="1.0" encoding="UTF-8" standalone="no"?>
<svg width="1140px" height="635px" viewBox="0 0 1140 635" version="1.1" xmlns="http://www.w3.org/2000/svg" xmlns:xlink="http://www.w3.org/1999/xlink" xmlns:sketch="http://www.bohemiancoding.com/sketch/ns">
    <!-- Generator: Sketch 3.0.4 (8053) - http://www.bohemiancoding.com/sketch -->
    <title>Screen Shot 2014-07-09 at 11.03 + Imported Layers</title>
    <desc>Created with Sketch.</desc>
    <defs></defs>
    <g id="Page-1" stroke="none" stroke-width="1" fill="none" fill-rule="evenodd" sketch:type="MSPage">
        <g id="New-User---Contact-List-13" sketch:type="MSArtboardGroup" transform="translate(-149.000000, -4522.000000)">
            <g id="Group-3" sketch:type="MSLayerGroup" transform="translate(149.000000, 4214.000000)">
                <g id="Screen-Shot-2014-07-09-at-11.03-+-Imported-Layers" transform="translate(0.000000, 309.000000)" sketch:type="MSShapeGroup">
                    <g id="Screen-Shot-2014-07-09-at-11.03-+-Imported-Layers-2">
                        <g id="Imported-Layers" transform="translate(136.119508, 40.591463)" fill="#BFBFC5">
                            <path d="M15.8661999,3.42679868 C18.2668977,3.42679868 20.2200224,5.3148629 20.2200224,7.63559097 C20.2200224,9.95631904 18.2668977,11.8443833 15.8661999,11.8443833 C13.4655022,11.8443833 11.5123774,9.95631904 11.5123774,7.63559097 C11.5123774,5.3148629 13.4655022,3.42679868 15.8661999,3.42679868 M15.8661999,2.58504022 C12.9804864,2.58504022 10.6416129,4.84600344 10.6416129,7.63559097 C10.6416129,10.4243367 12.9804864,12.6861417 15.8661999,12.6861417 C18.7510427,12.6861417 21.0907869,10.4243367 21.0907869,7.63559097 C21.0907869,4.84600344 18.7510427,2.58504022 15.8661999,2.58504022" id="Fill-1"></path>
                            <path d="M33.2814899,3.42679868 C35.6813169,3.42679868 37.6353124,5.3148629 37.6353124,7.63559097 C37.6353124,9.95631904 35.6813169,11.8443833 33.2814899,11.8443833 C30.8807922,11.8443833 28.9276674,9.95631904 28.9276674,7.63559097 C28.9276674,5.3148629 30.8807922,3.42679868 33.2814899,3.42679868 M33.2814899,2.58504022 C30.3957764,2.58504022 28.0569029,4.84600344 28.0569029,7.63559097 C28.0569029,10.4243367 30.3957764,12.6861417 33.2814899,12.6861417 C36.1663327,12.6861417 38.5060769,10.4243367 38.5060769,7.63559097 C38.5060769,4.84600344 36.1663327,2.58504022 33.2814899,2.58504022" id="Fill-2"></path>
                            <path d="M50.6967799,3.42679868 C53.0974776,3.42679868 55.0506024,5.3148629 55.0506024,7.63559097 C55.0506024,9.95631904 53.0974776,11.8443833 50.6967799,11.8443833 C48.2960822,11.8443833 46.3429574,9.95631904 46.3429574,7.63559097 C46.3429574,5.3148629 48.2960822,3.42679868 50.6967799,3.42679868 M50.6967799,2.58504022 C47.8110664,2.58504022 45.4721929,4.84600344 45.4721929,7.63559097 C45.4721929,10.4243367 47.8110664,12.6861417 50.6967799,12.6861417 C53.5816227,12.6861417 55.9213669,10.4243367 55.9213669,7.63559097 C55.9213669,4.84600344 53.5816227,2.58504022 50.6967799,2.58504022" id="Fill-3"></path>
                            <path d="M-0.0592119859,51.2967604 L869.181449,51.2967604 L869.181449,52.1385189 L-0.0592119859,52.1385189 L-0.0592119859,51.2967604 Z" id="Fill-4"></path>
                            <path d="M-0.0592119859,21.0641637 L63.6885862,21.0641637 L63.6885862,21.9059221 L-0.0592119859,21.9059221 L-0.0592119859,21.0641637 Z" id="Fill-5"></path>
                            <path d="M244.811956,21.0641637 L869.180578,21.0641637 L869.180578,21.9059221 L244.811956,21.9059221 L244.811956,21.0641637 Z" id="Fill-6"></path>
                            <path d="M244.812827,21.9059221 C242.451313,21.9059221 241.507405,19.3991654 239.627424,14.4050125 C239.246029,13.38901 238.822838,12.2652625 238.339563,11.0329281 C235.506966,3.80558999 234.298345,1.70371912 231.751359,1.70371912 L76.7500537,1.70371912 C74.2030676,1.70371912 72.9944464,3.80558999 70.1618495,11.0329281 C69.679446,12.2652625 69.2553837,13.38901 68.8739888,14.4050125 C66.994879,19.3991654 66.0500996,21.9059221 63.6885862,21.9059221 L63.6885862,21.0641637 C65.4405644,21.0641637 66.314812,18.7434356 68.0545994,14.1179729 C68.4386066,13.0977616 68.8626689,11.970647 69.3476847,10.7341039 C72.1559002,3.56989762 73.5221297,0.861960661 76.7500537,0.861960661 L231.751359,0.861960661 C234.979283,0.861960661 236.345513,3.56989762 239.153728,10.7341039 C239.638744,11.970647 240.062806,13.0977616 240.446813,14.1179729 C242.186601,18.7434356 243.060848,21.0641637 244.812827,21.0641637 L244.812827,21.9059221" id="Fill-7"></path>
                            <path d="M14.5269641,31.9893467 C14.594013,31.9893467 14.7228862,32.0053401 14.834344,32.1122434 C14.9458019,32.2199885 14.9623464,32.3454105 14.9623464,32.4102259 C14.9623464,32.4750413 14.9458019,32.5996216 14.834344,32.7065249 L12.5999623,34.8673188 C12.3509237,35.1080618 12.2760379,35.4700179 12.4110064,35.7848356 C12.5459749,36.0988115 12.8629332,36.3042005 13.2155928,36.3042005 L20.6214449,36.3042005 C20.8609051,36.3042005 21.0568271,36.4927544 21.0568271,36.7250798 C21.0568271,36.9565633 20.8609051,37.145959 20.6214449,37.145959 L13.2155928,37.145959 C12.8629332,37.145959 12.5459749,37.3513481 12.4110064,37.665324 C12.2760379,37.9801416 12.3509237,38.3420978 12.5999623,38.5828407 L14.834344,40.7427929 C14.9458019,40.8496962 14.9623464,40.9751182 14.9623464,41.0399336 C14.9623464,41.1055908 14.9458019,41.230171 14.8352148,41.3370744 C14.7516214,41.4170414 14.6427758,41.4608128 14.5269641,41.4608128 C14.4102817,41.4608128 14.3014361,41.4170414 14.2187135,41.3379161 L9.75430392,37.0222205 C9.67158129,36.9430952 9.6271723,36.8370336 9.6271723,36.7250798 C9.6271723,36.6131259 9.67158129,36.5070643 9.75430392,36.4270973 L14.2187135,32.1122434 C14.3301714,32.0053401 14.4590445,31.9893467 14.5269641,31.9893467 M14.5269641,31.1475882 C14.1925906,31.1475882 13.858217,31.270485 13.603083,31.5171202 L9.13867342,35.831974 C8.89398859,36.0693499 8.7564078,36.3900599 8.7564078,36.7250798 C8.7564078,37.0600996 8.89398859,37.3808096 9.13867342,37.6181855 L13.603083,41.9330393 C13.858217,42.1796746 14.1925906,42.3025713 14.5269641,42.3025713 C14.8604669,42.3025713 15.1948405,42.1796746 15.4499745,41.9330393 C15.9602425,41.4397689 15.9602425,40.6400983 15.4499745,40.1476696 L13.2155928,37.9877174 L20.6214449,37.9877174 C21.3424379,37.9877174 21.9275916,37.4228975 21.9275916,36.7250798 C21.9275916,36.0281038 21.3424379,35.4624421 20.6214449,35.4624421 L13.2155928,35.4624421 L15.4499745,33.3024899 C15.9602425,32.8100612 15.9602425,32.0103906 15.4499745,31.5171202 C15.1948405,31.270485 14.8604669,31.1475882 14.5269641,31.1475882" id="Fill-9"></path>
                            <path d="M40.5114476,31.9893467 C40.5793672,31.9893467 40.7082403,32.0053401 40.8196982,32.1122434 L45.2841078,36.4270973 C45.3668304,36.5070643 45.4112394,36.6131259 45.4112394,36.7250798 C45.4112394,36.8370336 45.3668304,36.9430952 45.2841078,37.0222205 L40.820569,41.3370744 C40.7369756,41.4170414 40.62813,41.4608128 40.5114476,41.4608128 C40.3956359,41.4608128 40.2867903,41.4170414 40.2049385,41.3379161 C40.0926098,41.230171 40.0760653,41.1055908 40.0760653,41.0399336 C40.0760653,40.9751182 40.0926098,40.8496962 40.2040677,40.7427929 L42.4384494,38.5828407 C42.687488,38.3420978 42.7623738,37.9801416 42.6274053,37.665324 C42.4924368,37.3513481 42.1754785,37.145959 41.8228189,37.145959 L34.4169668,37.145959 C34.1775066,37.145959 33.9815846,36.9565633 33.9815846,36.7250798 C33.9815846,36.4927544 34.1775066,36.3042005 34.4169668,36.3042005 L41.8228189,36.3042005 C42.1754785,36.3042005 42.4924368,36.0988115 42.6274053,35.7848356 C42.7623738,35.4700179 42.687488,35.1080618 42.4384494,34.8673188 L40.2040677,32.7065249 C40.0926098,32.5996216 40.0760653,32.4750413 40.0760653,32.4102259 C40.0760653,32.3454105 40.0926098,32.2199885 40.2040677,32.1122434 C40.3155255,32.0053401 40.4443987,31.9893467 40.5114476,31.9893467 M40.5114476,31.1475882 C40.1779448,31.1475882 39.8435712,31.270485 39.5884372,31.5171202 C39.0781692,32.0103906 39.0781692,32.8100612 39.5884372,33.3024899 L41.8228189,35.4624421 L34.4169668,35.4624421 C33.6959738,35.4624421 33.1108201,36.0281038 33.1108201,36.7250798 C33.1108201,37.4228975 33.6959738,37.9877174 34.4169668,37.9877174 L41.8228189,37.9877174 L39.5884372,40.1476696 C39.0781692,40.6400983 39.0781692,41.4397689 39.5884372,41.9330393 C39.8435712,42.1796746 40.1779448,42.3025713 40.5114476,42.3025713 C40.8458211,42.3025713 41.1801947,42.1796746 41.4353287,41.9330393 L45.8997383,37.6181855 C46.1444231,37.3808096 46.2820039,37.0600996 46.2820039,36.7250798 C46.2820039,36.3900599 46.1444231,36.0693499 45.8997383,35.831974 L41.4353287,31.5171202 C41.1801947,31.270485 40.8458211,31.1475882 40.5114476,31.1475882" id="Fill-10"></path>
                            <path d="M64.1291931,31.1299113 C65.5537638,31.1299113 66.9226056,31.6560103 67.985809,32.6122479 C68.1529958,32.7629227 68.3663331,32.8378392 68.5787997,32.8378392 C68.8017154,32.8378392 69.0255018,32.7553469 69.1944302,32.591204 L69.7969992,32.0087071 L69.7969992,35.3782662 L66.3121997,35.3782662 L67.3475387,34.3774154 C67.516467,34.2141143 67.6096388,33.9893648 67.6018019,33.7570394 C67.5948358,33.5255559 67.4894733,33.3066987 67.3109665,33.1534986 C66.4245283,32.3908655 65.2951467,31.9716697 64.1291931,31.9716697 C61.4890351,31.9716697 59.3399883,34.0491296 59.3399883,36.6013413 C59.3399883,39.1552364 61.4890351,41.2310128 64.1291931,41.2310128 C65.5502807,41.2310128 66.8895165,40.6257885 67.8038193,39.5702233 C67.8865419,39.4742629 68.0084489,39.4195486 68.1373221,39.4195486 C68.2095955,39.4195486 68.3166995,39.4372255 68.4168375,39.5171926 C68.6005688,39.6661838 68.6249502,39.9330212 68.4716956,40.1097905 C67.3919476,41.3581183 65.8088978,42.0727712 64.1291931,42.0727712 C61.0083731,42.0727712 58.4700946,39.6182036 58.4700946,36.6013413 C58.4700946,33.584479 61.0083731,31.1299113 64.1291931,31.1299113 M70.6677637,29.9767022 L68.5787997,31.9960807 C67.3841108,30.9211552 65.8001901,30.2881528 64.1291931,30.2881528 C60.5285819,30.2881528 57.5984593,33.1198283 57.5984593,36.6013413 C57.5984593,40.0828542 60.5285819,42.9145297 64.1291931,42.9145297 C66.0683856,42.9145297 67.8943788,42.0887647 69.1387012,40.6510412 C69.6019479,40.1156828 69.5288037,39.3193793 68.9758683,38.8724056 C68.7311834,38.6737506 68.433382,38.5777901 68.1373221,38.5777901 C67.7637641,38.5777901 67.3936892,38.7318319 67.1359429,39.0306562 C66.3879562,39.8943004 65.2925344,40.3892543 64.1291931,40.3892543 C61.9688263,40.3892543 60.2107528,38.689744 60.2107528,36.6013413 C60.2107528,34.5120968 61.9688263,32.8134282 64.1291931,32.8134282 C65.101837,32.8134282 66.0222351,33.1720173 66.7319082,33.7822922 L64.2093034,36.2200247 L70.6677637,36.2200247 L70.6677637,29.9767022" id="Fill-11"></path>
                            <path d="M97.4968887,40.7192236 L93.5915099,36.9447787 C93.9729047,36.3614401 94.201045,35.6762487 94.201045,34.9355013 C94.201045,32.8437315 92.4464546,31.1475882 90.2826048,31.1475882 C88.1178843,31.1475882 86.3641646,32.8437315 86.3641646,34.9355013 C86.3641646,37.027271 88.1178843,38.7234143 90.2826048,38.7234143 C91.0480068,38.7234143 91.7576799,38.5028736 92.3602489,38.1350252 L96.2656277,41.9094701 C96.4354267,42.073613 96.6583425,42.1561053 96.8812582,42.1561053 C97.1041739,42.1561053 97.3262188,42.073613 97.4968887,41.9094701 C97.8364868,41.5803425 97.8364868,41.0483512 97.4968887,40.7192236 L97.4968887,40.7192236 Z M87.5832349,34.9355013 C87.5832349,33.4969361 88.7944683,32.3260501 90.2826048,32.3260501 C91.7707413,32.3260501 92.981104,33.4969361 92.981104,34.9355013 C92.981104,36.3740665 91.7707413,37.5449525 90.2826048,37.5449525 C88.7944683,37.5449525 87.5832349,36.3740665 87.5832349,34.9355013 L87.5832349,34.9355013 Z" id="Fill-13"></path>
                            <path d="M834.242024,26.1206067 C835.202477,26.1206067 835.983553,26.8765058 835.983553,27.8041236 L835.983553,45.4810512 C835.983553,46.4095108 835.202477,47.1645682 834.242024,47.1645682 L82.8932973,47.1645682 C81.9337148,47.1645682 81.1517683,46.4095108 81.1517683,45.4810512 L81.1517683,27.8041236 C81.1517683,26.8765058 81.9337148,26.1206067 82.8932973,26.1206067 L834.242024,26.1206067 M834.242024,25.2788482 L82.8932973,25.2788482 C81.4504405,25.2788482 80.2810038,26.4101716 80.2810038,27.8041236 L80.2810038,45.4810512 C80.2810038,46.875845 81.4504405,48.0063266 82.8932973,48.0063266 L834.242024,48.0063266 C835.684881,48.0063266 836.854317,46.875845 836.854317,45.4810512 L836.854317,27.8041236 C836.854317,26.4101716 835.684881,25.2788482 834.242024,25.2788482" id="Fill-14"></path>
                            <path d="M262.998277,5.91166965 C264.413269,5.91166965 265.156902,6.97144355 265.523494,7.84182179 L268.713975,15.9454305 C268.996973,16.6137867 269.046607,17.1592462 268.852426,17.4403935 C268.72007,17.6289474 268.468419,17.6962881 268.276851,17.6962881 L249.101746,17.6962881 C247.786021,17.6962881 247.382857,17.1449363 247.13643,16.5371867 L243.292876,7.39905685 C243.130914,6.9764941 243.148329,6.62295555 243.346863,6.34854229 C243.549751,6.06486969 243.91199,5.91166965 244.149708,5.91166965 L262.998277,5.91166965 M262.998277,5.06991119 L244.149708,5.06991119 C243.187513,5.06991119 241.840441,6.03961694 242.47784,7.69283055 L246.330973,16.8545296 C246.688857,17.741743 247.396789,18.5380465 249.101746,18.5380465 L268.276851,18.5380465 C269.238175,18.5380465 270.418061,17.7493188 269.519432,15.6272458 L266.337658,7.54299754 C265.828261,6.33339064 264.794664,5.06991119 262.998277,5.06991119" id="Fill-15"></path>
                            <path d="M823.266037,30.2713177 L824.888271,34.5525012 L830.172941,34.5407166 L826.761286,38.1173482 L827.536266,42.972611 L823.266037,39.9607993 L818.995808,42.972611 L819.769918,38.1173482 L816.358262,34.5407166 L821.642932,34.5525012 L823.266037,30.2713177 M830.172941,34.5407166 L830.177295,34.5407166 M823.266037,29.4295592 C822.901187,29.4295592 822.57465,29.6500999 822.44926,29.9817528 L821.036009,33.7090592 L816.360004,33.6989581 L816.358262,33.6989581 C816.012569,33.6989581 815.699964,33.8967713 815.561513,34.2023297 C815.42132,34.5087297 815.483144,34.8656353 815.71738,35.1114288 L818.845166,38.390078 L818.135493,42.843822 C818.081505,43.1805254 818.242597,43.5147035 818.54214,43.6914728 C818.682333,43.7731233 818.839071,43.8143695 818.995808,43.8143695 C819.176927,43.8143695 819.357175,43.7596552 819.508688,43.6519101 L823.266037,41.0020545 L827.024257,43.6519101 C827.174899,43.7596552 827.355147,43.8143695 827.536266,43.8143695 C827.693004,43.8143695 827.850612,43.7731233 827.989935,43.6914728 C828.290348,43.5147035 828.450569,43.1805254 828.397452,42.843822 L827.685167,38.390078 L830.788572,35.1375233 C830.947051,34.985165 831.046318,34.7738837 831.046318,34.5407166 C831.046318,34.0760659 830.657957,33.6989581 830.177295,33.6989581 L830.172941,33.6989581 L830.170329,33.6989581 L825.496936,33.7090592 L824.083685,29.9817528 C823.957424,29.6500999 823.630888,29.4295592 823.266037,29.4295592" id="Fill-16"></path>
                            <path d="M852.694394,6.73154239 C852.887704,6.73154239 853.069694,6.80393362 853.204662,6.93524793 C853.485919,7.20713592 853.485919,7.64905911 853.204662,7.92094709 L851.558047,9.51271233 L853.03138,10.9369676 L849.074626,10.9369676 L849.074626,7.11201721 L850.537511,8.52701318 L851.154012,7.93188995 L852.183255,6.93524793 C852.319966,6.80393362 852.501085,6.73154239 852.694394,6.73154239 M848.203862,5.08001229 L848.203862,11.7787261 L855.133406,11.7787261 L852.789308,9.51271233 L853.820293,8.51607032 C854.442019,7.91505478 854.442019,6.94114024 853.820293,6.3401247 C853.510301,6.03961694 853.101912,5.88978393 852.694394,5.88978393 C852.286876,5.88978393 851.879359,6.03961694 851.568496,6.3401247 L850.537511,7.33676672 L848.203862,5.08001229" id="Fill-17"></path>
                            <path d="M859.505514,0.852701318 L859.505514,4.67849351 L858.656519,3.85777901 L858.041759,3.26265578 L856.394273,4.85526279 C856.259304,4.98573535 856.078185,5.05812657 855.885746,5.05812657 C855.691566,5.05812657 855.511317,4.98573535 855.375478,4.85526279 C855.094221,4.58253304 855.094221,4.1397681 855.373737,3.86872187 L856.405593,2.87207986 L857.021223,2.27695663 L856.405593,1.6818334 L855.547019,0.852701318 L859.505514,0.852701318 M860.376279,0.01094286 L853.445864,0.01094286 L855.790833,2.27695663 L854.758977,3.27359864 C854.138122,3.87377242 854.138122,4.84852872 854.758977,5.44954426 C855.068969,5.75005203 855.477358,5.89988503 855.885746,5.89988503 C856.293264,5.89988503 856.700782,5.75005203 857.010774,5.44954426 L858.041759,4.45290224 L860.376279,6.70965667 L860.376279,0.01094286" id="Fill-18"></path>
                            <path d="M857.793591,32.0415357 C858.033051,32.0415357 858.228973,32.2309314 858.228973,32.4624149 C858.228973,32.6947403 858.033051,32.8832942 857.793591,32.8832942 L849.04502,32.8832942 C848.804689,32.8832942 848.609638,32.6947403 848.609638,32.4624149 C848.609638,32.2309314 848.804689,32.0415357 849.04502,32.0415357 L857.793591,32.0415357 M857.793591,31.1997772 L849.04502,31.1997772 C848.324027,31.1997772 847.738873,31.7654389 847.738873,32.4624149 C847.738873,33.1602327 848.324027,33.7250526 849.04502,33.7250526 L857.793591,33.7250526 C858.514584,33.7250526 859.099738,33.1602327 859.099738,32.4624149 C859.099738,31.7654389 858.514584,31.1997772 857.793591,31.1997772" id="Fill-19"></path>
                            <path d="M857.793591,36.250328 C858.033051,36.250328 858.228973,36.4397236 858.228973,36.6712072 C858.228973,36.9035326 858.033051,37.0920864 857.793591,37.0920864 L849.04502,37.0920864 C848.804689,37.0920864 848.609638,36.9035326 848.609638,36.6712072 C848.609638,36.4397236 848.804689,36.250328 849.04502,36.250328 L857.793591,36.250328 M857.793591,35.4085695 L849.04502,35.4085695 C848.324027,35.4085695 847.738873,35.9742312 847.738873,36.6712072 C847.738873,37.369025 848.324027,37.9338449 849.04502,37.9338449 L857.793591,37.9338449 C858.514584,37.9338449 859.099738,37.369025 859.099738,36.6712072 C859.099738,35.9742312 858.514584,35.4085695 857.793591,35.4085695" id="Fill-20"></path>
                            <path d="M857.793591,40.4591203 C858.033051,40.4591203 858.228973,40.6485159 858.228973,40.8799995 C858.228973,41.1123248 858.033051,41.3008787 857.793591,41.3008787 L849.04502,41.3008787 C848.804689,41.3008787 848.609638,41.1123248 848.609638,40.8799995 C848.609638,40.6485159 848.804689,40.4591203 849.04502,40.4591203 L857.793591,40.4591203 M857.793591,39.6173618 L849.04502,39.6173618 C848.324027,39.6173618 847.738873,40.1830235 847.738873,40.8799995 C847.738873,41.5778173 848.324027,42.1426372 849.04502,42.1426372 L857.793591,42.1426372 C858.514584,42.1426372 859.099738,41.5778173 859.099738,40.8799995 C859.099738,40.1830235 858.514584,39.6173618 857.793591,39.6173618" id="Fill-21"></path>
                            <path d="M229.756438,9.40244197 L228.894381,8.5691011 L226.47888,10.9041391 L224.062509,8.5691011 L223.200452,9.40244197 L225.616823,11.7374799 L223.200452,14.0733597 L224.062509,14.9067005 L226.47888,12.5716626 L228.894381,14.9067005 L229.756438,14.0733597 L227.340937,11.7374799 L229.756438,9.40244197" id="Fill-22"></path>
                        </g>
                        <g id="Imported-Layers" fill="#BEBFC5">
                            <path d="M1137.88472,598.232964 L1032.57275,598.232964 C1033.78942,594.830597 1034.46128,591.186319 1034.46128,587.389835 L1034.46128,32.9150473 C1034.46128,14.5119371 1018.95573,-0.459868873 999.898495,-0.459868873 L140.296424,-0.459868873 C121.239186,-0.459868873 105.734241,14.5119371 105.734241,32.9150473 L105.734241,587.389835 C105.734241,591.186319 106.406102,594.830597 107.622164,598.232964 L2.14298729,598.232964 C1.15287637,598.232964 0.347961748,599.003836 0.347961748,599.951221 L0.347961748,616.996625 C0.347961748,617.529058 0.347961748,618.942902 1.66171667,619.865401 C1.97277452,620.091685 2.30660731,620.323757 2.66321506,620.560459 C2.6638144,620.560459 2.6638144,620.560459 2.66441374,620.561037 C10.5139795,625.777152 30.2017238,633.535638 52.2778409,633.535638 L1087.76485,633.535638 C1109.84096,633.535638 1129.52931,625.777152 1137.37887,620.561037 C1137.37887,620.560459 1137.38007,620.560459 1137.38007,620.560459 C1137.82958,620.262411 1138.2593,619.958577 1138.65727,619.659951 C1139.69592,618.882713 1139.69592,617.685316 1139.69592,617.234484 L1139.69592,599.969161 C1139.69592,599.044926 1138.84965,598.232964 1137.88472,598.232964 L1137.88472,598.232964 Z M108.131604,587.389835 L108.131604,32.9150473 C108.131604,15.7886207 122.560732,1.85506054 140.296424,1.85506054 L999.898495,1.85506054 C1017.63359,1.85506054 1032.06391,15.7886207 1032.06391,32.9150473 L1032.06391,587.389835 C1032.06391,591.204839 1031.33332,594.854325 1030.02196,598.232964 L935.92786,598.232964 L935.80979,597.72368 L932.989892,585.645536 L1016.894,585.645536 C1023.51372,585.645536 1028.88082,580.463566 1028.88082,574.070888 L1028.88082,32.5081984 C1028.88082,17.2962185 1016.06391,4.92060582 1000.31144,4.92060582 L139.881081,4.92060582 C124.128009,4.92060582 111.311706,17.2962185 111.311706,32.5081984 L111.311706,574.070888 C111.311706,580.463566 116.678203,585.645536 123.298521,585.645536 L204.442666,585.645536 L201.504098,598.232964 L110.172359,598.232964 C108.861002,594.854325 108.131604,591.204839 108.131604,587.389835 L108.131604,587.389835 Z M489.421999,598.232964 L203.961395,598.232964 L206.883181,585.717877 L930.549377,585.717877 L933.471163,598.232964 L489.421999,598.232964 L489.421999,598.232964 Z M648.110049,600.547894 C647.405224,604.277824 643.609,610.627096 636.892787,610.627096 L503.157091,610.627096 C496.440879,610.627096 492.644655,604.277824 491.93983,600.547894 L648.110049,600.547894 L648.110049,600.547894 Z M123.298521,583.330606 C118.011137,583.330606 113.709069,579.177044 113.709069,574.070888 L113.709069,32.5081984 C113.709069,18.5729021 125.450154,7.23553524 139.881081,7.23553524 L1000.31144,7.23553524 C1014.74237,7.23553524 1026.48345,18.5729021 1026.48345,32.5081984 L1026.48345,574.070888 C1026.48345,579.177044 1022.18138,583.330606 1016.894,583.330606 L123.298521,583.330606 L123.298521,583.330606 Z M2.74532474,600.547894 L489.514897,600.547894 C490.210132,605.340376 494.966501,612.942026 503.157091,612.942026 L636.892787,612.942026 C645.083378,612.942026 649.839147,605.340376 650.535581,600.547894 L1137.29856,600.547894 L1137.29856,617.234484 C1137.29856,617.454981 1137.28657,617.757079 1137.18708,617.831735 C1136.91438,618.036607 1136.6255,618.243214 1136.32463,618.449243 L3.71865412,618.449243 C3.50289145,618.302245 3.29432087,618.155247 3.08874699,618.005355 C2.86099751,617.845625 2.74532474,617.645384 2.74532474,616.996625 L2.74532474,600.547894 L2.74532474,600.547894 Z M1087.76485,631.220708 L52.2778409,631.220708 C33.5951911,631.220708 16.7249477,625.561864 7.62156107,620.764172 L1132.42172,620.764172 C1123.31774,625.561864 1106.4475,631.220708 1087.76485,631.220708 L1087.76485,631.220708 Z" id="Fill-1"></path>
                            <path d="M1002.79331,35.1981464 L137.215812,35.1981464 C135.560433,35.1981464 134.219109,36.4939281 134.219109,38.0918082 L134.219109,560.763517 C134.219109,562.361975 135.560433,563.657179 137.215812,563.657179 L1002.79331,563.657179 C1004.44809,563.657179 1005.79001,562.361975 1005.79001,560.763517 L1005.79001,38.0918082 C1005.79001,36.4939281 1004.44809,35.1981464 1002.79331,35.1981464 L1002.79331,35.1981464 Z M137.215812,38.0918082 L1002.79331,38.0918082 L1002.79331,560.763517 L137.215812,560.763517 L137.215812,38.0918082 Z" id="Fill-2"></path>
                            <path d="M570.252089,27.3678976 C572.900576,27.3678976 575.046815,25.2954571 575.046815,22.7380388 C575.046815,20.1806205 572.900576,18.10818 570.252089,18.10818 C567.604202,18.10818 565.457363,20.1806205 565.457363,22.7380388 C565.457363,25.2954571 567.604202,27.3678976 570.252089,27.3678976 L570.252089,27.3678976 Z M570.252089,20.4231094 C571.574235,20.4231094 572.649452,21.4613552 572.649452,22.7380388 C572.649452,24.0147224 571.574235,25.0529682 570.252089,25.0529682 C568.930543,25.0529682 567.854726,24.0147224 567.854726,22.7380388 C567.854726,21.4613552 568.930543,20.4231094 570.252089,20.4231094 L570.252089,20.4231094 Z" id="Fill-3"></path>
                        </g>
                    </g>
                </g>
            </g>
        </g>
    </g>
</svg>