<?xml version="1.0" encoding="UTF-8" standalone="no"?>
<svg width="52px" height="41px" viewBox="0 0 52 41" version="1.1" xmlns="http://www.w3.org/2000/svg" xmlns:xlink="http://www.w3.org/1999/xlink" xmlns:sketch="http://www.bohemiancoding.com/sketch/ns">
    <!-- Generator: Sketch 3.0.4 (8053) - http://www.bohemiancoding.com/sketch -->
    <title>New User - Contact List 14</title>
    <desc>Created with Sketch.</desc>
    <defs></defs>
    <g id="Page-1" stroke="none" stroke-width="1" fill="none" fill-rule="evenodd" sketch:type="MSPage">
        <g id="New-User---Contact-List-14" sketch:type="MSArtboardGroup" transform="translate(-453.000000, -3454.000000)" fill="#F8AE37">
            <g id="“-+-polaroid-+-Badge-is-indispensab-3" sketch:type="MSLayerGroup" transform="translate(152.000000, 3320.000000)">
                <g id="“-+-Badge-is-indispensab-+-–-Aniq-Ransam,-Presi" transform="translate(0.000000, 134.000000)" sketch:type="MSShapeGroup">
                    <path d="M324.24619,4.62695313 C321.944217,5.94531909 320.083075,7.08056165 318.662708,8.03271484 C317.242342,8.98486804 315.797508,10.2421797 314.328164,11.8046875 C312.956776,13.2695386 311.903761,14.8076091 311.169089,16.4189453 C310.434417,18.0302815 309.920154,20.1054561 309.626285,22.6445313 L313.152694,22.6445313 C316.189339,22.6445313 318.576988,23.3891527 320.315713,24.878418 C322.054437,26.3676832 322.923786,28.55272 322.923786,31.4335938 C322.923786,33.4843853 322.152392,35.40087 320.60958,37.1831055 C319.066768,38.9653409 316.948495,39.8564453 314.254697,39.8564453 C310.042576,39.8564453 307.030465,38.4770646 305.218274,35.7182617 C303.406082,32.9594589 302.5,29.3340068 302.5,24.8417969 C302.5,21.6679529 303.185684,18.7749154 304.557072,16.1625977 C305.92846,13.5502799 307.593692,11.2187603 309.552818,9.16796875 C311.560922,7.06834888 313.69144,5.28614014 315.944435,3.82128906 C318.19743,2.35643799 320.08306,1.16016089 321.601383,0.232421875 L324.24619,4.62695313 Z M351.428927,4.62695313 C349.126954,5.94531909 347.265812,7.08056165 345.845446,8.03271484 C344.425079,8.98486804 342.980245,10.2421797 341.510901,11.8046875 C340.090535,13.3183669 339.025276,14.8686444 338.315093,16.4555664 C337.60491,18.0424884 337.102891,20.1054561 336.809022,22.6445313 L340.335431,22.6445313 C343.372077,22.6445313 345.759725,23.3891527 347.49845,24.878418 C349.237174,26.3676832 350.106523,28.55272 350.106523,31.4335938 C350.106523,33.4843853 349.335129,35.40087 347.792317,37.1831055 C346.249506,38.9653409 344.131232,39.8564453 341.437434,39.8564453 C337.225313,39.8564453 334.213202,38.4770646 332.401011,35.7182617 C330.588819,32.9594589 329.682737,29.3340068 329.682737,24.8417969 C329.682737,21.6679529 330.368421,18.7749154 331.739809,16.1625977 C333.111197,13.5502799 334.776429,11.2187603 336.735555,9.16796875 C338.743659,7.06834888 340.874177,5.28614014 343.127172,3.82128906 C345.380167,2.35643799 347.265797,1.16016089 348.78412,0.232421875 L351.428927,4.62695313 Z" id="“"></path>
                </g>
            </g>
        </g>
    </g>
</svg>