<?xml version="1.0" encoding="UTF-8" standalone="no"?>
<svg width="1141px" height="657px" viewBox="0 0 1141 657" version="1.1" xmlns="http://www.w3.org/2000/svg" xmlns:xlink="http://www.w3.org/1999/xlink" xmlns:sketch="http://www.bohemiancoding.com/sketch/ns">
    <!-- Generator: Sketch 3.0.4 (8053) - http://www.bohemiancoding.com/sketch -->
    <title>New User - Contact List 14</title>
    <desc>Created with Sketch.</desc>
    <defs>
        <rect id="path-1" x="0" y="0" width="866" height="488"></rect>
    </defs>
    <g id="Page-1" stroke="none" stroke-width="1" fill="none" fill-rule="evenodd" sketch:type="MSPage">
        <g id="New-User---Contact-List-14" sketch:type="MSArtboardGroup" transform="translate(-152.000000, -4522.000000)">
            <g id="Group-3" sketch:type="MSLayerGroup" transform="translate(152.000000, 4214.000000)">
                <g id="Screen-Shot-2014-07-09-at-11.03-+-Imported-Layers" transform="translate(0.000000, 309.000000)">
                    <g id="Screen-Shot-2014-07-09-at-11.03-+-Imported-Layers-2">
                        <g id="Screen-Shot-2014-07-09-at-11.03" transform="translate(137.000000, 94.000000)">
                            <mask id="mask-2" sketch:name="Mask" fill="white">
                                <use xlink:href="#path-1"></use>
                            </mask>
                            <use id="Mask" sketch:type="MSShapeGroup" xlink:href="#path-1"></use>
                        </g>
                        <g id="Imported-Layers" transform="translate(136.000000, 42.000000)" fill="#BFBFC5" sketch:type="MSShapeGroup">
                            <path d="M15.85227,3.54570968 C18.25086,3.54570968 20.20227,5.49929032 20.20227,7.90054839 C20.20227,10.3018065 18.25086,12.2553871 15.85227,12.2553871 C13.45368,12.2553871 11.50227,10.3018065 11.50227,7.90054839 C11.50227,5.49929032 13.45368,3.54570968 15.85227,3.54570968 M15.85227,2.67474194 C12.96909,2.67474194 10.63227,5.01416129 10.63227,7.90054839 C10.63227,10.7860645 12.96909,13.1263548 15.85227,13.1263548 C18.73458,13.1263548 21.07227,10.7860645 21.07227,7.90054839 C21.07227,5.01416129 18.73458,2.67474194 15.85227,2.67474194" id="Fill-1"></path>
                            <path d="M33.25227,3.54570968 C35.64999,3.54570968 37.60227,5.49929032 37.60227,7.90054839 C37.60227,10.3018065 35.64999,12.2553871 33.25227,12.2553871 C30.85368,12.2553871 28.90227,10.3018065 28.90227,7.90054839 C28.90227,5.49929032 30.85368,3.54570968 33.25227,3.54570968 M33.25227,2.67474194 C30.36909,2.67474194 28.03227,5.01416129 28.03227,7.90054839 C28.03227,10.7860645 30.36909,13.1263548 33.25227,13.1263548 C36.13458,13.1263548 38.47227,10.7860645 38.47227,7.90054839 C38.47227,5.01416129 36.13458,2.67474194 33.25227,2.67474194" id="Fill-2"></path>
                            <path d="M50.65227,3.54570968 C53.05086,3.54570968 55.00227,5.49929032 55.00227,7.90054839 C55.00227,10.3018065 53.05086,12.2553871 50.65227,12.2553871 C48.25368,12.2553871 46.30227,10.3018065 46.30227,7.90054839 C46.30227,5.49929032 48.25368,3.54570968 50.65227,3.54570968 M50.65227,2.67474194 C47.76909,2.67474194 45.43227,5.01416129 45.43227,7.90054839 C45.43227,10.7860645 47.76909,13.1263548 50.65227,13.1263548 C53.53458,13.1263548 55.87227,10.7860645 55.87227,7.90054839 C55.87227,5.01416129 53.53458,2.67474194 50.65227,2.67474194" id="Fill-3"></path>
                            <path d="M-0.05916,53.0767742 L868.41834,53.0767742 L868.41834,53.9477419 L-0.05916,53.9477419 L-0.05916,53.0767742 Z" id="Fill-4"></path>
                            <path d="M-0.05916,21.7950968 L63.63267,21.7950968 L63.63267,22.6660645 L-0.05916,22.6660645 L-0.05916,21.7950968 Z" id="Fill-5"></path>
                            <path d="M244.59702,21.7950968 L868.41747,21.7950968 L868.41747,22.6660645 L244.59702,22.6660645 L244.59702,21.7950968 Z" id="Fill-6"></path>
                            <path d="M244.59789,22.6660645 C242.23845,22.6660645 241.29537,20.0723226 239.41704,14.904871 C239.03598,13.8536129 238.61316,12.690871 238.13031,11.4157742 C235.3002,3.93764516 234.09264,1.76283871 231.54789,1.76283871 L76.68267,1.76283871 C74.13792,1.76283871 72.93036,3.93764516 70.10025,11.4157742 C69.61827,12.690871 69.19458,13.8536129 68.81352,14.904871 C66.93606,20.0723226 65.99211,22.6660645 63.63267,22.6660645 L63.63267,21.7950968 C65.38311,21.7950968 66.25659,19.3938387 67.99485,14.607871 C68.37852,13.5522581 68.80221,12.3860323 69.2868,11.1065806 C72.09255,3.69377419 73.45758,0.891870968 76.68267,0.891870968 L231.54789,0.891870968 C234.77298,0.891870968 236.13801,3.69377419 238.94376,11.1065806 C239.42835,12.3860323 239.85204,13.5522581 240.23571,14.607871 C241.97397,19.3938387 242.84745,21.7950968 244.59789,21.7950968 L244.59789,22.6660645" id="Fill-7"></path>
                            <path d="M14.51421,33.0993871 C14.5812,33.0993871 14.70996,33.1159355 14.82132,33.2265484 C14.93268,33.3380323 14.94921,33.4678065 14.94921,33.534871 C14.94921,33.6019355 14.93268,33.7308387 14.82132,33.8414516 L12.5889,36.0772258 C12.34008,36.3263226 12.26526,36.7008387 12.40011,37.0265806 C12.53496,37.3514516 12.85164,37.5639677 13.20399,37.5639677 L20.60334,37.5639677 C20.84259,37.5639677 21.03834,37.7590645 21.03834,37.9994516 C21.03834,38.2389677 20.84259,38.4349355 20.60334,38.4349355 L13.20399,38.4349355 C12.85164,38.4349355 12.53496,38.6474516 12.40011,38.9723226 C12.26526,39.2980645 12.34008,39.6725806 12.5889,39.9216774 L14.82132,42.1565806 C14.93268,42.2671935 14.94921,42.3969677 14.94921,42.4640323 C14.94921,42.5319677 14.93268,42.660871 14.82219,42.7714839 C14.73867,42.8542258 14.62992,42.8995161 14.51421,42.8995161 C14.39763,42.8995161 14.28888,42.8542258 14.20623,42.7723548 L9.74574,38.3069032 C9.66309,38.2250323 9.61872,38.1152903 9.61872,37.9994516 C9.61872,37.8836129 9.66309,37.773871 9.74574,37.691129 L14.20623,33.2265484 C14.31759,33.1159355 14.44635,33.0993871 14.51421,33.0993871 M14.51421,32.2284194 C14.18013,32.2284194 13.84605,32.3555806 13.59114,32.6107742 L9.13065,37.0753548 C8.88618,37.3209677 8.74872,37.6528065 8.74872,37.9994516 C8.74872,38.3460968 8.88618,38.6779355 9.13065,38.9235484 L13.59114,43.388129 C13.84605,43.6433226 14.18013,43.7704839 14.51421,43.7704839 C14.84742,43.7704839 15.1815,43.6433226 15.43641,43.388129 C15.94623,42.8777419 15.94623,42.0503226 15.43641,41.5408065 L13.20399,39.3059032 L20.60334,39.3059032 C21.3237,39.3059032 21.90834,38.7214839 21.90834,37.9994516 C21.90834,37.2782903 21.3237,36.693 20.60334,36.693 L13.20399,36.693 L15.43641,34.4580968 C15.94623,33.9485806 15.94623,33.1211613 15.43641,32.6107742 C15.1815,32.3555806 14.84742,32.2284194 14.51421,32.2284194" id="Fill-9"></path>
                            <path d="M40.47588,33.0993871 C40.54374,33.0993871 40.6725,33.1159355 40.78386,33.2265484 L45.24435,37.691129 C45.327,37.773871 45.37137,37.8836129 45.37137,37.9994516 C45.37137,38.1152903 45.327,38.2250323 45.24435,38.3069032 L40.78473,42.7714839 C40.70121,42.8542258 40.59246,42.8995161 40.47588,42.8995161 C40.36017,42.8995161 40.25142,42.8542258 40.16964,42.7723548 C40.05741,42.660871 40.04088,42.5319677 40.04088,42.4640323 C40.04088,42.3969677 40.05741,42.2671935 40.16877,42.1565806 L42.40119,39.9216774 C42.65001,39.6725806 42.72483,39.2980645 42.58998,38.9723226 C42.45513,38.6474516 42.13845,38.4349355 41.7861,38.4349355 L34.38675,38.4349355 C34.1475,38.4349355 33.95175,38.2389677 33.95175,37.9994516 C33.95175,37.7590645 34.1475,37.5639677 34.38675,37.5639677 L41.7861,37.5639677 C42.13845,37.5639677 42.45513,37.3514516 42.58998,37.0265806 C42.72483,36.7008387 42.65001,36.3263226 42.40119,36.0772258 L40.16877,33.8414516 C40.05741,33.7308387 40.04088,33.6019355 40.04088,33.534871 C40.04088,33.4678065 40.05741,33.3380323 40.16877,33.2265484 C40.28013,33.1159355 40.40889,33.0993871 40.47588,33.0993871 M40.47588,32.2284194 C40.14267,32.2284194 39.80859,32.3555806 39.55368,32.6107742 C39.04386,33.1211613 39.04386,33.9485806 39.55368,34.4580968 L41.7861,36.693 L34.38675,36.693 C33.66639,36.693 33.08175,37.2782903 33.08175,37.9994516 C33.08175,38.7214839 33.66639,39.3059032 34.38675,39.3059032 L41.7861,39.3059032 L39.55368,41.5408065 C39.04386,42.0503226 39.04386,42.8777419 39.55368,43.388129 C39.80859,43.6433226 40.14267,43.7704839 40.47588,43.7704839 C40.80996,43.7704839 41.14404,43.6433226 41.39895,43.388129 L45.85944,38.9235484 C46.10391,38.6779355 46.24137,38.3460968 46.24137,37.9994516 C46.24137,37.6528065 46.10391,37.3209677 45.85944,37.0753548 L41.39895,32.6107742 C41.14404,32.3555806 40.80996,32.2284194 40.47588,32.2284194" id="Fill-10"></path>
                            <path d="M64.07289,32.210129 C65.49621,32.210129 66.86385,32.7544839 67.92612,33.7439032 C68.09316,33.8998065 68.30631,33.9773226 68.51859,33.9773226 C68.74131,33.9773226 68.9649,33.8919677 69.13368,33.722129 L69.73572,33.1194194 L69.73572,36.6059032 L66.25398,36.6059032 L67.28841,35.5703226 C67.45719,35.4013548 67.55028,35.1688065 67.54245,34.9284194 C67.53549,34.6889032 67.43022,34.4624516 67.25187,34.3039355 C66.36621,33.5148387 65.23782,33.0810968 64.07289,33.0810968 C61.43505,33.0810968 59.28789,35.2306452 59.28789,37.8714194 C59.28789,40.5139355 61.43505,42.6617419 64.07289,42.6617419 C65.49273,42.6617419 66.83079,42.0355161 67.74429,40.9433226 C67.82694,40.8440323 67.94874,40.7874194 68.0775,40.7874194 C68.14971,40.7874194 68.25672,40.8057097 68.35677,40.8884516 C68.54034,41.0426129 68.5647,41.3187097 68.41158,41.5016129 C67.33278,42.7932581 65.75112,43.5327097 64.07289,43.5327097 C60.95481,43.5327097 58.41876,40.9929677 58.41876,37.8714194 C58.41876,34.749871 60.95481,32.210129 64.07289,32.210129 M70.60572,31.0169032 L68.51859,33.1063548 C67.32495,31.994129 65.74242,31.3391613 64.07289,31.3391613 C60.47544,31.3391613 57.54789,34.2690968 57.54789,37.8714194 C57.54789,41.4737419 60.47544,44.4036774 64.07289,44.4036774 C66.01038,44.4036774 67.83477,43.5492581 69.078,42.0616452 C69.54084,41.5077097 69.46776,40.6837742 68.91531,40.2212903 C68.67084,40.0157419 68.3733,39.9164516 68.0775,39.9164516 C67.70427,39.9164516 67.33452,40.0758387 67.077,40.3850323 C66.32967,41.2786452 65.23521,41.7907742 64.07289,41.7907742 C61.91442,41.7907742 60.15789,40.0322903 60.15789,37.8714194 C60.15789,35.7096774 61.91442,33.9520645 64.07289,33.9520645 C65.04468,33.9520645 65.96427,34.3230968 66.67332,34.9545484 L64.15293,37.476871 L70.60572,37.476871 L70.60572,31.0169032" id="Fill-11"></path>
                            <path d="M97.41129,42.1321935 L93.50934,38.2267742 C93.8904,37.6231935 94.11834,36.9142258 94.11834,36.1477742 C94.11834,33.9834194 92.36529,32.2284194 90.20334,32.2284194 C88.04052,32.2284194 86.28834,33.9834194 86.28834,36.1477742 C86.28834,38.312129 88.04052,40.067129 90.20334,40.067129 C90.96807,40.067129 91.67712,39.8389355 92.27916,39.4583226 L96.18111,43.3637419 C96.35076,43.5335806 96.57348,43.6189355 96.7962,43.6189355 C97.01892,43.6189355 97.24077,43.5335806 97.41129,43.3637419 C97.75059,43.0231935 97.75059,42.4727419 97.41129,42.1321935 L97.41129,42.1321935 Z M87.50634,36.1477742 C87.50634,34.6592903 88.71651,33.4477742 90.20334,33.4477742 C91.69017,33.4477742 92.89947,34.6592903 92.89947,36.1477742 C92.89947,37.6362581 91.69017,38.8477742 90.20334,38.8477742 C88.71651,38.8477742 87.50634,37.6362581 87.50634,36.1477742 L87.50634,36.1477742 Z" id="Fill-13"></path>
                            <path d="M833.50959,27.027 C834.4692,27.027 835.24959,27.809129 835.24959,28.7689355 L835.24959,47.0592581 C835.24959,48.0199355 834.4692,48.8011935 833.50959,48.8011935 L82.82052,48.8011935 C81.86178,48.8011935 81.08052,48.0199355 81.08052,47.0592581 L81.08052,28.7689355 C81.08052,27.809129 81.86178,27.027 82.82052,27.027 L833.50959,27.027 M833.50959,26.1560323 L82.82052,26.1560323 C81.37893,26.1560323 80.21052,27.3266129 80.21052,28.7689355 L80.21052,47.0592581 C80.21052,48.5024516 81.37893,49.6721613 82.82052,49.6721613 L833.50959,49.6721613 C834.95118,49.6721613 836.11959,48.5024516 836.11959,47.0592581 L836.11959,28.7689355 C836.11959,27.3266129 834.95118,26.1560323 833.50959,26.1560323" id="Fill-14"></path>
                            <path d="M262.767374,6.11680645 C264.181124,6.11680645 264.924104,7.21335484 265.290374,8.11393548 L268.478054,16.4987419 C268.760804,17.1902903 268.810394,17.7546774 268.616384,18.0455806 C268.484144,18.2406774 268.232714,18.3103548 268.041314,18.3103548 L248.883044,18.3103548 C247.568474,18.3103548 247.165664,17.739871 246.919454,17.1110323 L243.079274,7.65580645 C242.917454,7.21858065 242.934854,6.85277419 243.133214,6.56883871 C243.335924,6.27532258 243.697844,6.11680645 243.935354,6.11680645 L262.767374,6.11680645 M262.767374,5.24583871 L243.935354,5.24583871 C242.974004,5.24583871 241.628114,6.24919355 242.264954,7.95977419 L246.114704,17.4393871 C246.472274,18.3573871 247.179584,19.1813226 248.883044,19.1813226 L268.041314,19.1813226 C269.001794,19.1813226 270.180644,18.3652258 269.282804,16.1695161 L266.103824,7.80474194 C265.594874,6.55316129 264.562184,5.24583871 262.767374,5.24583871" id="Fill-15"></path>
                            <path d="M822.54324,31.3217419 L824.16405,35.7514839 L829.44408,35.7392903 L826.03542,39.4400323 L826.80972,44.4637742 L822.54324,41.3474516 L818.27676,44.4637742 L819.05019,39.4400323 L815.64153,35.7392903 L820.92156,35.7514839 L822.54324,31.3217419 M829.44408,35.7392903 L829.44843,35.7392903 M822.54324,30.4507742 C822.17871,30.4507742 821.85246,30.6789677 821.72718,31.022129 L820.31517,34.8787742 L815.64327,34.8683226 L815.64153,34.8683226 C815.29614,34.8683226 814.98381,35.073 814.84548,35.3891613 C814.70541,35.7061935 814.76718,36.0754839 815.00121,36.3298065 L818.12625,39.7222258 L817.4172,44.3305161 C817.36326,44.6789032 817.52421,45.0246774 817.82349,45.2075806 C817.96356,45.2920645 818.12016,45.3347419 818.27676,45.3347419 C818.45772,45.3347419 818.63781,45.278129 818.78919,45.1666452 L822.54324,42.4248387 L826.29816,45.1666452 C826.44867,45.278129 826.62876,45.3347419 826.80972,45.3347419 C826.96632,45.3347419 827.12379,45.2920645 827.26299,45.2075806 C827.56314,45.0246774 827.72322,44.6789032 827.67015,44.3305161 L826.95849,39.7222258 L830.05917,36.3568065 C830.21751,36.1991613 830.31669,35.9805484 830.31669,35.7392903 C830.31669,35.2585161 829.92867,34.8683226 829.44843,34.8683226 L829.44408,34.8683226 L829.44147,34.8683226 L824.77218,34.8787742 L823.36017,31.022129 C823.23402,30.6789677 822.90777,30.4507742 822.54324,30.4507742" id="Fill-16"></path>
                            <path d="M851.94576,6.96512903 C852.1389,6.96512903 852.32073,7.04003226 852.45558,7.17590323 C852.73659,7.45722581 852.73659,7.91448387 852.45558,8.19580645 L850.81041,9.84280645 L852.28245,11.3164839 L848.32917,11.3164839 L848.32917,7.35880645 L849.79077,8.82290323 L850.40673,8.20712903 L851.43507,7.17590323 C851.57166,7.04003226 851.75262,6.96512903 851.94576,6.96512903 M847.45917,5.25629032 L847.45917,12.1874516 L854.38263,12.1874516 L852.04059,9.84280645 L853.07067,8.81158065 C853.69185,8.18970968 853.69185,7.182 853.07067,6.56012903 C852.76095,6.24919355 852.35292,6.09416129 851.94576,6.09416129 C851.5386,6.09416129 851.13144,6.24919355 850.82085,6.56012903 L849.79077,7.59135484 L847.45917,5.25629032" id="Fill-17"></path>
                            <path d="M858.7509,0.882290323 L858.7509,4.84083871 L857.90265,3.99164516 L857.28843,3.37587097 L855.64239,5.02374194 C855.50754,5.15874194 855.32658,5.23364516 855.13431,5.23364516 C854.9403,5.23364516 854.76021,5.15874194 854.62449,5.02374194 C854.34348,4.74154839 854.34348,4.28341935 854.62275,4.00296774 L855.6537,2.97174194 L856.26879,2.35596774 L855.6537,1.74019355 L854.79588,0.882290323 L858.7509,0.882290323 M859.6209,0.0113225806 L852.69657,0.0113225806 L855.03948,2.35596774 L854.00853,3.38719355 C853.38822,4.00819355 853.38822,5.01677419 854.00853,5.63864516 C854.31825,5.94958065 854.72628,6.1046129 855.13431,6.1046129 C855.54147,6.1046129 855.94863,5.94958065 856.25835,5.63864516 L857.28843,4.60741935 L859.6209,6.94248387 L859.6209,0.0113225806" id="Fill-18"></path>
                            <path d="M857.04048,33.1533871 C857.27973,33.1533871 857.47548,33.3493548 857.47548,33.588871 C857.47548,33.8292581 857.27973,34.0243548 857.04048,34.0243548 L848.29959,34.0243548 C848.05947,34.0243548 847.86459,33.8292581 847.86459,33.588871 C847.86459,33.3493548 848.05947,33.1533871 848.29959,33.1533871 L857.04048,33.1533871 M857.04048,32.2824194 L848.29959,32.2824194 C847.57923,32.2824194 846.99459,32.8677097 846.99459,33.588871 C846.99459,34.3109032 847.57923,34.8953226 848.29959,34.8953226 L857.04048,34.8953226 C857.76084,34.8953226 858.34548,34.3109032 858.34548,33.588871 C858.34548,32.8677097 857.76084,32.2824194 857.04048,32.2824194" id="Fill-19"></path>
                            <path d="M857.04048,37.5082258 C857.27973,37.5082258 857.47548,37.7041935 857.47548,37.9437097 C857.47548,38.1840968 857.27973,38.3791935 857.04048,38.3791935 L848.29959,38.3791935 C848.05947,38.3791935 847.86459,38.1840968 847.86459,37.9437097 C847.86459,37.7041935 848.05947,37.5082258 848.29959,37.5082258 L857.04048,37.5082258 M857.04048,36.6372581 L848.29959,36.6372581 C847.57923,36.6372581 846.99459,37.2225484 846.99459,37.9437097 C846.99459,38.6657419 847.57923,39.2501613 848.29959,39.2501613 L857.04048,39.2501613 C857.76084,39.2501613 858.34548,38.6657419 858.34548,37.9437097 C858.34548,37.2225484 857.76084,36.6372581 857.04048,36.6372581" id="Fill-20"></path>
                            <path d="M857.04048,41.8630645 C857.27973,41.8630645 857.47548,42.0590323 857.47548,42.2985484 C857.47548,42.5389355 857.27973,42.7340323 857.04048,42.7340323 L848.29959,42.7340323 C848.05947,42.7340323 847.86459,42.5389355 847.86459,42.2985484 C847.86459,42.0590323 848.05947,41.8630645 848.29959,41.8630645 L857.04048,41.8630645 M857.04048,40.9920968 L848.29959,40.9920968 C847.57923,40.9920968 846.99459,41.5773871 846.99459,42.2985484 C846.99459,43.0205806 847.57923,43.605 848.29959,43.605 L857.04048,43.605 C857.76084,43.605 858.34548,43.0205806 858.34548,42.2985484 C858.34548,41.5773871 857.76084,40.9920968 857.04048,40.9920968" id="Fill-21"></path>
                            <path d="M229.55472,9.72870968 L228.69342,8.86645161 L226.28004,11.2825161 L223.86579,8.86645161 L223.00449,9.72870968 L225.41874,12.1447742 L223.00449,14.5617097 L223.86579,15.4239677 L226.28004,13.0079032 L228.69342,15.4239677 L229.55472,14.5617097 L227.14134,12.1447742 L229.55472,9.72870968" id="Fill-22"></path>
                        </g>
                        <g id="Imported-Layers" fill="#BEBFC5" sketch:type="MSShapeGroup">
                            <path d="M1136.88569,618.991837 L1031.66619,618.991837 C1032.88179,615.471406 1033.55306,611.700671 1033.55306,607.772447 L1033.55306,34.0572098 C1033.55306,15.0155059 1018.06113,-0.475826468 999.020621,-0.475826468 L140.173249,-0.475826468 C121.132743,-0.475826468 105.64141,15.0155059 105.64141,34.0572098 L105.64141,607.772447 C105.64141,611.700671 106.312681,615.471406 107.527676,618.991837 L2.14110583,618.991837 C1.15186419,618.991837 0.34765625,619.789458 0.34765625,620.769717 L0.34765625,638.406602 C0.34765625,638.957512 0.34765625,640.420416 1.66025774,641.374926 C1.97104249,641.609062 2.3045822,641.849187 2.66087685,642.094102 C2.66147567,642.094102 2.66147567,642.094102 2.66207448,642.094701 C10.5047486,647.491817 30.1752078,655.519524 52.2319429,655.519524 L1086.80983,655.519524 C1108.86656,655.519524 1128.53762,647.491817 1136.3803,642.094701 C1136.3803,642.094102 1136.38149,642.094102 1136.38149,642.094102 C1136.8306,641.785713 1137.25995,641.471335 1137.65757,641.162347 C1138.69531,640.358139 1138.69531,639.119191 1138.69531,638.652715 L1138.69531,620.788281 C1138.69531,619.831974 1137.84979,618.991837 1136.88569,618.991837 L1136.88569,618.991837 Z M108.036668,607.772447 L108.036668,34.0572098 C108.036668,16.3364908 122.453129,1.91943173 140.173249,1.91943173 L999.020621,1.91943173 C1016.74014,1.91943173 1031.1578,16.3364908 1031.1578,34.0572098 L1031.1578,607.772447 C1031.1578,611.719833 1030.42785,615.495958 1029.11764,618.991837 L935.10615,618.991837 L934.988184,618.46488 L932.170761,605.96762 L1016.00121,605.96762 C1022.61511,605.96762 1027.9775,600.605835 1027.9775,593.991329 L1027.9775,33.6362432 C1027.9775,17.8964027 1015.17185,5.0913524 999.433204,5.0913524 L139.75827,5.0913524 C124.019029,5.0913524 111.213978,17.8964027 111.213978,33.6362432 L111.213978,593.991329 C111.213978,600.605835 116.575764,605.96762 123.190269,605.96762 L204.263172,605.96762 L201.327185,618.991837 L110.075632,618.991837 C108.765426,615.495958 108.036668,611.719833 108.036668,607.772447 L108.036668,607.772447 Z M488.992305,618.991837 L203.782324,618.991837 L206.701545,606.042472 L929.732388,606.042472 L932.651609,618.991837 L488.992305,618.991837 L488.992305,618.991837 Z M647.541032,621.387095 C646.836826,625.246455 643.043935,631.816049 636.333619,631.816049 L502.715338,631.816049 C496.005022,631.816049 492.212131,625.246455 491.507925,621.387095 L647.541032,621.387095 L647.541032,621.387095 Z M123.190269,603.572362 C117.907527,603.572362 113.609237,599.27467 113.609237,593.991329 L113.609237,33.6362432 C113.609237,19.2173876 125.340014,7.4866106 139.75827,7.4866106 L999.433204,7.4866106 C1013.85146,7.4866106 1025.58224,19.2173876 1025.58224,33.6362432 L1025.58224,593.991329 C1025.58224,599.27467 1021.28395,603.572362 1016.00121,603.572362 L123.190269,603.572362 L123.190269,603.572362 Z M2.74291445,621.387095 L489.085121,621.387095 C489.779746,626.345878 494.531938,634.211307 502.715338,634.211307 L636.333619,634.211307 C644.517019,634.211307 649.268612,626.345878 649.964435,621.387095 L1136.30005,621.387095 L1136.30005,638.652715 C1136.30005,638.880863 1136.28808,639.193444 1136.18867,639.270692 C1135.91621,639.482672 1135.62759,639.696449 1135.32698,639.909627 L3.71538928,639.909627 C3.49981604,639.757528 3.29142858,639.605429 3.08603518,639.450336 C2.85848566,639.285063 2.74291445,639.077873 2.74291445,638.406602 L2.74291445,621.387095 L2.74291445,621.387095 Z M1086.80983,653.124266 L52.2319429,653.124266 C33.5656958,653.124266 16.7102638,647.269058 7.61486962,642.304885 L1131.4275,642.304885 C1122.33151,647.269058 1105.47608,653.124266 1086.80983,653.124266 L1086.80983,653.124266 Z" id="Fill-1"></path>
                            <path d="M1001.9129,36.4195332 L137.095342,36.4195332 C135.441416,36.4195332 134.101269,37.760279 134.101269,39.4136059 L134.101269,580.222188 C134.101269,581.876113 135.441416,583.21626 137.095342,583.21626 L1001.9129,583.21626 C1003.56622,583.21626 1004.90697,581.876113 1004.90697,580.222188 L1004.90697,39.4136059 C1004.90697,37.760279 1003.56622,36.4195332 1001.9129,36.4195332 L1001.9129,36.4195332 Z M137.095342,39.4136059 L1001.9129,39.4136059 L1001.9129,580.222188 L137.095342,580.222188 L137.095342,39.4136059 Z" id="Fill-2"></path>
                            <path d="M569.751429,28.3175723 C572.397591,28.3175723 574.541946,26.1732174 574.541946,23.5270559 C574.541946,20.8808944 572.397591,18.7365395 569.751429,18.7365395 C567.105866,18.7365395 564.960913,20.8808944 564.960913,23.5270559 C564.960913,26.1732174 567.105866,28.3175723 569.751429,28.3175723 L569.751429,28.3175723 Z M569.751429,21.1317977 C571.072414,21.1317977 572.146687,22.206071 572.146687,23.5270559 C572.146687,24.8480408 571.072414,25.9223141 569.751429,25.9223141 C568.431043,25.9223141 567.356171,24.8480408 567.356171,23.5270559 C567.356171,22.206071 568.431043,21.1317977 569.751429,21.1317977 L569.751429,21.1317977 Z" id="Fill-3"></path>
                        </g>
                    </g>
                </g>
            </g>
        </g>
    </g>
</svg>