<?xml version="1.0" encoding="utf-8"?>
<!-- Generator: Adobe Illustrator 16.0.4, SVG Export Plug-In . SVG Version: 6.00 Build 0)  -->
<!DOCTYPE svg PUBLIC "-//W3C//DTD SVG 1.1//EN" "http://www.w3.org/Graphics/SVG/1.1/DTD/svg11.dtd">
<svg version="1.1" id="Layer_1" xmlns="http://www.w3.org/2000/svg" xmlns:xlink="http://www.w3.org/1999/xlink" x="0px" y="0px"
	 width="59.407px" height="47.653px" viewBox="0 0 59.407 47.653" enable-background="new 0 0 59.407 47.653" xml:space="preserve">
<g>
	<linearGradient id="SVGID_1_" gradientUnits="userSpaceOnUse" x1="11.7031" y1="29.0771" x2="32.7031" y2="29.0771">
		<stop  offset="0" style="stop-color:#F5C82F"/>
		<stop  offset="1" style="stop-color:#F3A928"/>
	</linearGradient>
	<path fill="url(#SVGID_1_)" d="M29.703,11.827h-15c-1.623,0-3,1.344-3,3v28.5c0,1.656,1.377,3,3,3h15c1.623,0,3-1.344,3-3v-28.5
		C32.703,13.17,31.326,11.827,29.703,11.827z M31.203,43.327c0,0.826-0.691,1.5-1.5,1.5h-15c-0.809,0-1.5-0.674-1.5-1.5v-28.5
		c0-0.828,0.691-1.5,1.5-1.5h15c0.809,0,1.5,0.672,1.5,1.5V43.327z"/>
	<linearGradient id="SVGID_2_" gradientUnits="userSpaceOnUse" x1="14.7031" y1="29.0771" x2="29.7031" y2="29.0771">
		<stop  offset="0" style="stop-color:#F5C82F"/>
		<stop  offset="1" style="stop-color:#F3A928"/>
	</linearGradient>
	<path fill="url(#SVGID_2_)" d="M14.703,40.327h15v-22.5h-15V40.327z M16.203,19.327h12v19.5h-12V19.327z"/>
	<linearGradient id="SVGID_3_" gradientUnits="userSpaceOnUse" x1="20.7031" y1="42.5771" x2="23.7031" y2="42.5771">
		<stop  offset="0" style="stop-color:#F5C82F"/>
		<stop  offset="1" style="stop-color:#F3A928"/>
	</linearGradient>
	<rect x="20.703" y="41.827" fill="url(#SVGID_3_)" width="3" height="1.5"/>
	<linearGradient id="SVGID_4_" gradientUnits="userSpaceOnUse" x1="19.2031" y1="15.5767" x2="20.7031" y2="15.5767">
		<stop  offset="0" style="stop-color:#F5C82F"/>
		<stop  offset="1" style="stop-color:#F3A928"/>
	</linearGradient>
	<rect x="19.203" y="14.827" fill="url(#SVGID_4_)" width="1.5" height="1.5"/>
	<linearGradient id="SVGID_5_" gradientUnits="userSpaceOnUse" x1="22.2031" y1="15.5767" x2="25.2031" y2="15.5767">
		<stop  offset="0" style="stop-color:#F5C82F"/>
		<stop  offset="1" style="stop-color:#F3A928"/>
	</linearGradient>
	<rect x="22.203" y="14.827" fill="url(#SVGID_5_)" width="3" height="1.5"/>
	<linearGradient id="SVGID_6_" gradientUnits="userSpaceOnUse" x1="35.7031" y1="32.0771" x2="38.7031" y2="32.0771">
		<stop  offset="0" style="stop-color:#F5C82F"/>
		<stop  offset="1" style="stop-color:#F3A928"/>
	</linearGradient>
	<rect x="35.703" y="31.327" fill="url(#SVGID_6_)" width="3" height="1.5"/>
	<linearGradient id="SVGID_7_" gradientUnits="userSpaceOnUse" x1="34.2031" y1="5.0767" x2="35.7031" y2="5.0767">
		<stop  offset="0" style="stop-color:#F5C82F"/>
		<stop  offset="1" style="stop-color:#F3A928"/>
	</linearGradient>
	<rect x="34.203" y="4.327" fill="url(#SVGID_7_)" width="1.5" height="1.5"/>
	<linearGradient id="SVGID_8_" gradientUnits="userSpaceOnUse" x1="37.2031" y1="5.0767" x2="40.2031" y2="5.0767">
		<stop  offset="0" style="stop-color:#F5C82F"/>
		<stop  offset="1" style="stop-color:#F3A928"/>
	</linearGradient>
	<rect x="37.203" y="4.327" fill="url(#SVGID_8_)" width="3" height="1.5"/>
	<linearGradient id="SVGID_9_" gradientUnits="userSpaceOnUse" x1="29.7031" y1="18.5771" x2="44.7031" y2="18.5771">
		<stop  offset="0" style="stop-color:#F5C82F"/>
		<stop  offset="1" style="stop-color:#F3A928"/>
	</linearGradient>
	<polygon fill="url(#SVGID_9_)" points="29.703,7.327 29.703,10.327 31.203,10.327 31.203,8.827 43.203,8.827 43.203,28.327 
		34.203,28.327 34.203,29.827 44.703,29.827 44.703,7.327 	"/>
	<linearGradient id="SVGID_10_" gradientUnits="userSpaceOnUse" x1="26.7031" y1="18.5771" x2="47.7031" y2="18.5771">
		<stop  offset="0" style="stop-color:#F5C82F"/>
		<stop  offset="1" style="stop-color:#F3A928"/>
	</linearGradient>
	<path fill="url(#SVGID_10_)" d="M44.703,1.327h-15c-1.623,0-3,1.344-3,3v6h1.5v-6c0-0.828,0.691-1.5,1.5-1.5h15
		c0.809,0,1.5,0.672,1.5,1.5v28.5c0,0.826-0.691,1.5-1.5,1.5h-10.5v1.5h10.5c1.623,0,3-1.344,3-3v-28.5
		C47.703,2.67,46.326,1.327,44.703,1.327z"/>
</g>
</svg>
