<?xml version="1.0" encoding="utf-8"?>
<!-- Generator: Adobe Illustrator 16.0.4, SVG Export Plug-In . SVG Version: 6.00 Build 0)  -->
<!DOCTYPE svg PUBLIC "-//W3C//DTD SVG 1.1//EN" "http://www.w3.org/Graphics/SVG/1.1/DTD/svg11.dtd">
<svg version="1.1" id="Layer_1" xmlns="http://www.w3.org/2000/svg" xmlns:xlink="http://www.w3.org/1999/xlink" x="0px" y="0px"
	 width="59.407px" height="47.653px" viewBox="0 0 59.407 47.653" enable-background="new 0 0 59.407 47.653" xml:space="preserve">
<g>
	<linearGradient id="SVGID_1_" gradientUnits="userSpaceOnUse" x1="89.7031" y1="29.0771" x2="110.7031" y2="29.0771">
		<stop  offset="0" style="stop-color:#F5C82F"/>
		<stop  offset="1" style="stop-color:#F3A928"/>
	</linearGradient>
	<path fill="url(#SVGID_1_)" d="M107.703,11.827h-15c-1.623,0-3,1.344-3,3v28.5c0,1.656,1.377,3,3,3h15c1.623,0,3-1.344,3-3v-28.5
		C110.703,13.17,109.326,11.827,107.703,11.827z M109.203,43.327c0,0.826-0.691,1.5-1.5,1.5h-15c-0.809,0-1.5-0.674-1.5-1.5v-28.5
		c0-0.828,0.691-1.5,1.5-1.5h15c0.809,0,1.5,0.672,1.5,1.5V43.327z"/>
	<linearGradient id="SVGID_2_" gradientUnits="userSpaceOnUse" x1="92.7031" y1="29.0771" x2="107.7031" y2="29.0771">
		<stop  offset="0" style="stop-color:#F5C82F"/>
		<stop  offset="1" style="stop-color:#F3A928"/>
	</linearGradient>
	<path fill="url(#SVGID_2_)" d="M92.703,40.327h15v-22.5h-15V40.327z M94.203,19.327h12v19.5h-12V19.327z"/>
	<linearGradient id="SVGID_3_" gradientUnits="userSpaceOnUse" x1="98.7031" y1="42.5771" x2="101.7031" y2="42.5771">
		<stop  offset="0" style="stop-color:#F5C82F"/>
		<stop  offset="1" style="stop-color:#F3A928"/>
	</linearGradient>
	<rect x="98.703" y="41.827" fill="url(#SVGID_3_)" width="3" height="1.5"/>
	<linearGradient id="SVGID_4_" gradientUnits="userSpaceOnUse" x1="97.2031" y1="15.5767" x2="98.7031" y2="15.5767">
		<stop  offset="0" style="stop-color:#F5C82F"/>
		<stop  offset="1" style="stop-color:#F3A928"/>
	</linearGradient>
	<rect x="97.203" y="14.827" fill="url(#SVGID_4_)" width="1.5" height="1.5"/>
	<linearGradient id="SVGID_5_" gradientUnits="userSpaceOnUse" x1="100.2031" y1="15.5767" x2="103.2031" y2="15.5767">
		<stop  offset="0" style="stop-color:#F5C82F"/>
		<stop  offset="1" style="stop-color:#F3A928"/>
	</linearGradient>
	<rect x="100.203" y="14.827" fill="url(#SVGID_5_)" width="3" height="1.5"/>
	<linearGradient id="SVGID_6_" gradientUnits="userSpaceOnUse" x1="113.7031" y1="32.0771" x2="116.7031" y2="32.0771">
		<stop  offset="0" style="stop-color:#F5C82F"/>
		<stop  offset="1" style="stop-color:#F3A928"/>
	</linearGradient>
	<rect x="113.703" y="31.327" fill="url(#SVGID_6_)" width="3" height="1.5"/>
	<linearGradient id="SVGID_7_" gradientUnits="userSpaceOnUse" x1="112.2031" y1="5.0767" x2="113.7031" y2="5.0767">
		<stop  offset="0" style="stop-color:#F5C82F"/>
		<stop  offset="1" style="stop-color:#F3A928"/>
	</linearGradient>
	<rect x="112.203" y="4.327" fill="url(#SVGID_7_)" width="1.5" height="1.5"/>
	<linearGradient id="SVGID_8_" gradientUnits="userSpaceOnUse" x1="115.2031" y1="5.0767" x2="118.2031" y2="5.0767">
		<stop  offset="0" style="stop-color:#F5C82F"/>
		<stop  offset="1" style="stop-color:#F3A928"/>
	</linearGradient>
	<rect x="115.203" y="4.327" fill="url(#SVGID_8_)" width="3" height="1.5"/>
	<linearGradient id="SVGID_9_" gradientUnits="userSpaceOnUse" x1="107.7031" y1="18.5771" x2="122.7031" y2="18.5771">
		<stop  offset="0" style="stop-color:#F5C82F"/>
		<stop  offset="1" style="stop-color:#F3A928"/>
	</linearGradient>
	<polygon fill="url(#SVGID_9_)" points="107.703,7.327 107.703,10.327 109.203,10.327 109.203,8.827 121.203,8.827 121.203,28.327 
		112.203,28.327 112.203,29.827 122.703,29.827 122.703,7.327 	"/>
	<linearGradient id="SVGID_10_" gradientUnits="userSpaceOnUse" x1="104.7031" y1="18.5771" x2="125.7031" y2="18.5771">
		<stop  offset="0" style="stop-color:#F5C82F"/>
		<stop  offset="1" style="stop-color:#F3A928"/>
	</linearGradient>
	<path fill="url(#SVGID_10_)" d="M122.703,1.327h-15c-1.623,0-3,1.344-3,3v6h1.5v-6c0-0.828,0.691-1.5,1.5-1.5h15
		c0.809,0,1.5,0.672,1.5,1.5v28.5c0,0.826-0.691,1.5-1.5,1.5h-10.5v1.5h10.5c1.623,0,3-1.344,3-3v-28.5
		C125.703,2.67,124.326,1.327,122.703,1.327z"/>
</g>
<g>
	<linearGradient id="SVGID_11_" gradientUnits="userSpaceOnUse" x1="21.6377" y1="27.8438" x2="58.749" y2="27.8438">
		<stop  offset="0" style="stop-color:#F5C82F"/>
		<stop  offset="1" style="stop-color:#F3A928"/>
	</linearGradient>
	<path fill="url(#SVGID_11_)" d="M58.749,25.569c0-7.534-6.07-13.938-14.555-16.366c0.509,0.757,0.931,1.561,1.306,2.378
		c6.735,2.523,11.391,7.833,11.391,13.988c0,4.701-2.384,8.678-6.655,11.531l1.398,5.75l-5.09-3.711
		c-3.021,1.385-6.1,2.002-9.869,2.002c-4.385,0-8.434-1.09-11.746-2.914c-0.727,0.059-1.451,0.123-2.197,0.123
		c-0.369,0-0.727-0.033-1.094-0.047c3.945,2.906,9.22,4.693,15.037,4.693c3.436,0,6.681-0.639,9.58-1.742l7.847,5.229l-1.733-8.664
		C56.311,34.669,58.749,30.347,58.749,25.569z"/>
	<linearGradient id="SVGID_12_" gradientUnits="userSpaceOnUse" x1="0.6572" y1="20.3408" x2="44.8076" y2="20.3408">
		<stop  offset="0" style="stop-color:#F5C82F"/>
		<stop  offset="1" style="stop-color:#F3A928"/>
	</linearGradient>
	<path fill="url(#SVGID_12_)" d="M22.731,3.032c11.146,0,20.217,6.983,20.217,15.566c0,8.586-9.07,15.573-20.217,15.573
		c-3.09,0-6.09-0.549-8.919-1.627l-0.896-0.34l-0.796,0.533l-4.111,2.74l0.854-4.264l0.221-1.109l-0.887-0.707
		c-3.664-2.93-5.682-6.766-5.682-10.799C2.515,10.015,11.586,3.032,22.731,3.032 M22.731,1.17c-12.189,0-22.074,7.803-22.074,17.428
		c0,4.777,2.436,9.1,6.381,12.25l-1.733,8.662l7.846-5.227c2.9,1.102,6.144,1.742,9.581,1.742c12.191,0,22.076-7.803,22.076-17.428
		C44.808,8.973,34.923,1.17,22.731,1.17L22.731,1.17z"/>
</g>
<g>
	<linearGradient id="SVGID_13_" gradientUnits="userSpaceOnUse" x1="-471.7734" y1="117.895" x2="-454.4766" y2="117.895">
		<stop  offset="0" style="stop-color:#F5C82F"/>
		<stop  offset="1" style="stop-color:#F3A928"/>
	</linearGradient>
	<path fill="url(#SVGID_13_)" d="M-463.125,110.819c3.9,0,7.075,3.174,7.075,7.076s-3.175,7.076-7.075,7.076
		c-3.902,0-7.076-3.174-7.076-7.076S-467.027,110.819-463.125,110.819 M-463.125,109.247c-4.775,0-8.648,3.871-8.648,8.648
		s3.873,8.648,8.648,8.648s8.648-3.871,8.648-8.648S-458.35,109.247-463.125,109.247L-463.125,109.247z"/>
	<linearGradient id="SVGID_14_" gradientUnits="userSpaceOnUse" x1="-481.209" y1="139.9092" x2="-445.043" y2="139.9092">
		<stop  offset="0" style="stop-color:#F5C82F"/>
		<stop  offset="1" style="stop-color:#F3A928"/>
	</linearGradient>
	<path fill="url(#SVGID_14_)" d="M-445.043,145.458l-1.445-7.883c-1.629-5.24-6.649-9.459-16.637-9.459s-15.129,4.163-16.637,9.459
		l-1.447,7.883c0,1.141,2.876,2.152,7.306,2.781l-0.071,0.688c0,1.533,4.857,2.775,10.85,2.775c5.991,0,10.85-1.242,10.85-2.775
		l-0.072-0.688C-447.917,147.61-445.043,146.599-445.043,145.458z M-452.511,146.675l-0.458-4.406h-1.447l0.504,6.135l0.024,0.234
		c-0.86,0.574-4.118,1.492-9.237,1.492s-8.379-0.918-9.238-1.492l0.024-0.234l0.504-6.135h-1.447l-0.458,4.406
		c-3.854-0.553-5.32-1.217-5.814-1.516l1.326-7.221c1.553-5.322,6.912-8.25,15.104-8.25c8.042,0,13.403,2.936,15.105,8.268
		l1.322,7.203C-447.189,145.458-448.658,146.122-452.511,146.675z"/>
	<linearGradient id="SVGID_15_" gradientUnits="userSpaceOnUse" x1="-493.7871" y1="136.6318" x2="-466.2393" y2="136.6318">
		<stop  offset="0" style="stop-color:#F5C82F"/>
		<stop  offset="1" style="stop-color:#F3A928"/>
	</linearGradient>
	<path fill="url(#SVGID_15_)" d="M-475.705,124.971c-9.987,0-15.127,4.162-16.637,9.459l-1.445,7.883
		c0,1.141,2.874,2.152,7.305,2.783l-0.072,0.686c0,1.109,2.562,2.066,6.25,2.51c-1.251-0.551-2.008-1.207-2.312-1.986
		c-1.172-0.27-1.963-0.57-2.325-0.814l0.528-6.369h-1.447l-0.458,4.408c-3.854-0.553-5.321-1.217-5.813-1.516l1.325-7.223
		c1.552-5.321,6.913-8.249,15.103-8.249c2.248,0,4.277,0.237,6.085,0.684c1.065-0.243,2.197-0.419,3.381-0.532
		C-468.712,125.611-471.83,124.971-475.705,124.971z"/>
	<linearGradient id="SVGID_16_" gradientUnits="userSpaceOnUse" x1="-484.3535" y1="114.75" x2="-468.8809" y2="114.75">
		<stop  offset="0" style="stop-color:#F5C82F"/>
		<stop  offset="1" style="stop-color:#F3A928"/>
	</linearGradient>
	<path fill="url(#SVGID_16_)" d="M-472.793,121.192c-0.888,0.404-1.873,0.634-2.912,0.634c-3.9,0-7.075-3.174-7.075-7.074
		c0-3.903,3.175-7.077,7.075-7.077c2.281,0,4.307,1.089,5.6,2.768c0.385-0.358,0.789-0.694,1.225-0.991
		c-1.582-2.034-4.047-3.349-6.824-3.349c-4.775,0-8.648,3.871-8.648,8.649c0,4.776,3.873,8.646,8.648,8.646
		c1.26,0,2.451-0.274,3.531-0.758C-472.416,122.176-472.621,121.692-472.793,121.192z"/>
</g>
<rect id="_x3C_Slice_x3E__3_" x="-498.583" y="106.251" fill="none" width="59.407" height="45.298"/>
<g>
	<linearGradient id="SVGID_17_" gradientUnits="userSpaceOnUse" x1="-53.1904" y1="13.2959" x2="-35.8936" y2="13.2959">
		<stop  offset="0" style="stop-color:#F5C82F"/>
		<stop  offset="1" style="stop-color:#F3A928"/>
	</linearGradient>
	<path fill="url(#SVGID_17_)" d="M-44.542,6.22c3.9,0,7.075,3.174,7.075,7.076s-3.175,7.076-7.075,7.076
		c-3.902,0-7.076-3.174-7.076-7.076S-48.444,6.22-44.542,6.22 M-44.542,4.647c-4.775,0-8.648,3.871-8.648,8.648
		s3.873,8.648,8.648,8.648s8.648-3.871,8.648-8.648S-39.767,4.647-44.542,4.647L-44.542,4.647z"/>
	<linearGradient id="SVGID_18_" gradientUnits="userSpaceOnUse" x1="-62.626" y1="35.3096" x2="-26.46" y2="35.3096">
		<stop  offset="0" style="stop-color:#F5C82F"/>
		<stop  offset="1" style="stop-color:#F3A928"/>
	</linearGradient>
	<path fill="url(#SVGID_18_)" d="M-26.46,40.859l-1.445-7.883c-1.629-5.24-6.649-9.459-16.637-9.459s-15.129,4.163-16.637,9.459
		l-1.447,7.883c0,1.141,2.876,2.152,7.306,2.781l-0.071,0.688c0,1.533,4.857,2.775,10.85,2.775c5.991,0,10.85-1.242,10.85-2.775
		l-0.072-0.688C-29.334,43.011-26.46,42-26.46,40.859z M-33.928,42.076l-0.458-4.406h-1.447l0.504,6.135l0.024,0.234
		c-0.86,0.574-4.118,1.492-9.237,1.492s-8.379-0.918-9.238-1.492l0.024-0.234l0.504-6.135h-1.447l-0.458,4.406
		c-3.854-0.553-5.32-1.217-5.814-1.516l1.326-7.221c1.553-5.322,6.912-8.25,15.104-8.25c8.042,0,13.403,2.936,15.105,8.268
		l1.322,7.203C-28.606,40.859-30.075,41.523-33.928,42.076z"/>
	<linearGradient id="SVGID_19_" gradientUnits="userSpaceOnUse" x1="-75.2041" y1="32.0322" x2="-47.6562" y2="32.0322">
		<stop  offset="0" style="stop-color:#F5C82F"/>
		<stop  offset="1" style="stop-color:#F3A928"/>
	</linearGradient>
	<path fill="url(#SVGID_19_)" d="M-57.122,20.372c-9.987,0-15.127,4.162-16.637,9.459l-1.445,7.883c0,1.141,2.874,2.152,7.305,2.783
		l-0.072,0.686c0,1.109,2.562,2.066,6.25,2.51c-1.251-0.551-2.008-1.207-2.312-1.986c-1.172-0.27-1.963-0.57-2.325-0.814
		l0.528-6.369h-1.447l-0.458,4.408c-3.854-0.553-5.321-1.217-5.813-1.516l1.325-7.223c1.552-5.321,6.913-8.249,15.103-8.249
		c2.248,0,4.277,0.237,6.085,0.684c1.065-0.243,2.197-0.419,3.381-0.532C-50.129,21.012-53.247,20.372-57.122,20.372z"/>
	<linearGradient id="SVGID_20_" gradientUnits="userSpaceOnUse" x1="-65.7705" y1="10.1509" x2="-50.2979" y2="10.1509">
		<stop  offset="0" style="stop-color:#F5C82F"/>
		<stop  offset="1" style="stop-color:#F3A928"/>
	</linearGradient>
	<path fill="url(#SVGID_20_)" d="M-54.21,16.593c-0.888,0.404-1.873,0.634-2.912,0.634c-3.9,0-7.075-3.174-7.075-7.074
		c0-3.903,3.175-7.077,7.075-7.077c2.281,0,4.307,1.089,5.6,2.768c0.385-0.358,0.789-0.694,1.225-0.991
		c-1.582-2.034-4.047-3.349-6.824-3.349c-4.775,0-8.648,3.871-8.648,8.649c0,4.776,3.873,8.646,8.648,8.646
		c1.26,0,2.451-0.274,3.531-0.758C-53.833,17.577-54.038,17.093-54.21,16.593z"/>
</g>
</svg>
