<?xml version="1.0" encoding="utf-8"?>
<!-- Generator: Adobe Illustrator 16.0.4, SVG Export Plug-In . SVG Version: 6.00 Build 0)  -->
<!DOCTYPE svg PUBLIC "-//W3C//DTD SVG 1.1//EN" "http://www.w3.org/Graphics/SVG/1.1/DTD/svg11.dtd">
<svg version="1.1" id="Layer_1" xmlns="http://www.w3.org/2000/svg" xmlns:xlink="http://www.w3.org/1999/xlink" x="0px" y="0px"
	 width="59.407px" height="47.653px" viewBox="0 0 59.407 47.653" enable-background="new 0 0 59.407 47.653" xml:space="preserve">
<g>
	<linearGradient id="SVGID_1_" gradientUnits="userSpaceOnUse" x1="26.8096" y1="13.2959" x2="44.1064" y2="13.2959">
		<stop  offset="0" style="stop-color:#F5C82F"/>
		<stop  offset="1" style="stop-color:#F3A928"/>
	</linearGradient>
	<path fill="url(#SVGID_1_)" d="M35.458,6.22c3.9,0,7.075,3.174,7.075,7.076s-3.175,7.076-7.075,7.076
		c-3.902,0-7.076-3.174-7.076-7.076S31.556,6.22,35.458,6.22 M35.458,4.647c-4.775,0-8.648,3.871-8.648,8.648
		s3.873,8.648,8.648,8.648s8.648-3.871,8.648-8.648S40.233,4.647,35.458,4.647L35.458,4.647z"/>
	<linearGradient id="SVGID_2_" gradientUnits="userSpaceOnUse" x1="17.374" y1="35.3096" x2="53.54" y2="35.3096">
		<stop  offset="0" style="stop-color:#F5C82F"/>
		<stop  offset="1" style="stop-color:#F3A928"/>
	</linearGradient>
	<path fill="url(#SVGID_2_)" d="M53.54,40.859l-1.445-7.883c-1.629-5.24-6.649-9.459-16.637-9.459s-15.129,4.163-16.637,9.459
		l-1.447,7.883c0,1.141,2.876,2.152,7.306,2.781l-0.071,0.688c0,1.533,4.857,2.775,10.85,2.775c5.991,0,10.85-1.242,10.85-2.775
		l-0.072-0.688C50.666,43.011,53.54,42,53.54,40.859z M46.072,42.076l-0.458-4.406h-1.447l0.504,6.135l0.024,0.234
		c-0.86,0.574-4.118,1.492-9.237,1.492s-8.379-0.918-9.238-1.492l0.024-0.234l0.504-6.135h-1.447l-0.458,4.406
		c-3.854-0.553-5.32-1.217-5.814-1.516l1.326-7.221c1.553-5.322,6.912-8.25,15.104-8.25c8.042,0,13.403,2.936,15.105,8.268
		l1.322,7.203C51.394,40.859,49.925,41.523,46.072,42.076z"/>
	<linearGradient id="SVGID_3_" gradientUnits="userSpaceOnUse" x1="4.7959" y1="32.0322" x2="32.3438" y2="32.0322">
		<stop  offset="0" style="stop-color:#F5C82F"/>
		<stop  offset="1" style="stop-color:#F3A928"/>
	</linearGradient>
	<path fill="url(#SVGID_3_)" d="M22.878,20.372c-9.987,0-15.127,4.162-16.637,9.459l-1.445,7.883c0,1.141,2.874,2.152,7.305,2.783
		l-0.072,0.686c0,1.109,2.562,2.066,6.25,2.51c-1.251-0.551-2.008-1.207-2.312-1.986c-1.172-0.27-1.963-0.57-2.325-0.814
		l0.528-6.369h-1.447l-0.458,4.408c-3.854-0.553-5.321-1.217-5.813-1.516l1.325-7.223c1.552-5.321,6.913-8.249,15.103-8.249
		c2.248,0,4.277,0.237,6.085,0.684c1.065-0.243,2.197-0.419,3.381-0.532C29.871,21.012,26.753,20.372,22.878,20.372z"/>
	<linearGradient id="SVGID_4_" gradientUnits="userSpaceOnUse" x1="14.2295" y1="10.1509" x2="29.7021" y2="10.1509">
		<stop  offset="0" style="stop-color:#F5C82F"/>
		<stop  offset="1" style="stop-color:#F3A928"/>
	</linearGradient>
	<path fill="url(#SVGID_4_)" d="M25.79,16.593c-0.888,0.404-1.873,0.634-2.912,0.634c-3.9,0-7.075-3.174-7.075-7.074
		c0-3.903,3.175-7.077,7.075-7.077c2.281,0,4.307,1.089,5.6,2.768c0.385-0.358,0.789-0.694,1.225-0.991
		c-1.582-2.034-4.047-3.349-6.824-3.349c-4.775,0-8.648,3.871-8.648,8.649c0,4.776,3.873,8.646,8.648,8.646
		c1.26,0,2.451-0.274,3.531-0.758C26.167,17.577,25.962,17.093,25.79,16.593z"/>
</g>
</svg>
