<svg xmlns="http://www.w3.org/2000/svg" xmlns:xlink="http://www.w3.org/1999/xlink" version="1.1" id="Layer_1" x="0px" y="0px" width="59.407px" height="47.653px" viewBox="0 0 59.407 47.653" enable-background="new 0 0 59.407 47.653" xml:space="preserve"><g><linearGradient id="SVGID_1_" gradientUnits="userSpaceOnUse" x1="11.7" y1="29.1" x2="32.7" y2="29.1"><stop offset="0" style="stop-color:#F5C82F"/><stop offset="1" style="stop-color:#F3A928"/></linearGradient><path fill="url(#SVGID_1_)" d="M29.703 11.827h-15c-1.623 0-3 1.344-3 3v28.5c0 1.7 1.4 3 3 3h15c1.623 0 3-1.344 3-3v-28.5 C32.703 13.2 31.3 11.8 29.7 11.827z M31.203 43.327c0 0.826-0.691 1.5-1.5 1.5h-15c-0.809 0-1.5-0.674-1.5-1.5v-28.5 c0-0.828 0.691-1.5 1.5-1.5h15c0.809 0 1.5 0.7 1.5 1.5V43.327z"/><linearGradient id="SVGID_2_" gradientUnits="userSpaceOnUse" x1="14.7" y1="29.1" x2="29.7" y2="29.1"><stop offset="0" style="stop-color:#F5C82F"/><stop offset="1" style="stop-color:#F3A928"/></linearGradient><path fill="url(#SVGID_2_)" d="M14.703 40.327h15v-22.5h-15V40.327z M16.203 19.327h12v19.5h-12V19.327z"/><linearGradient id="SVGID_3_" gradientUnits="userSpaceOnUse" x1="20.7" y1="42.6" x2="23.7" y2="42.6"><stop offset="0" style="stop-color:#F5C82F"/><stop offset="1" style="stop-color:#F3A928"/></linearGradient><rect x="20.7" y="41.8" fill="url(#SVGID_3_)" width="3" height="1.5"/><linearGradient id="SVGID_4_" gradientUnits="userSpaceOnUse" x1="19.2" y1="15.6" x2="20.7" y2="15.6"><stop offset="0" style="stop-color:#F5C82F"/><stop offset="1" style="stop-color:#F3A928"/></linearGradient><rect x="19.2" y="14.8" fill="url(#SVGID_4_)" width="1.5" height="1.5"/><linearGradient id="SVGID_5_" gradientUnits="userSpaceOnUse" x1="22.2" y1="15.6" x2="25.2" y2="15.6"><stop offset="0" style="stop-color:#F5C82F"/><stop offset="1" style="stop-color:#F3A928"/></linearGradient><rect x="22.2" y="14.8" fill="url(#SVGID_5_)" width="3" height="1.5"/><linearGradient id="SVGID_6_" gradientUnits="userSpaceOnUse" x1="35.7" y1="32.1" x2="38.7" y2="32.1"><stop offset="0" style="stop-color:#F5C82F"/><stop offset="1" style="stop-color:#F3A928"/></linearGradient><rect x="35.7" y="31.3" fill="url(#SVGID_6_)" width="3" height="1.5"/><linearGradient id="SVGID_7_" gradientUnits="userSpaceOnUse" x1="34.2" y1="5.1" x2="35.7" y2="5.1"><stop offset="0" style="stop-color:#F5C82F"/><stop offset="1" style="stop-color:#F3A928"/></linearGradient><rect x="34.2" y="4.3" fill="url(#SVGID_7_)" width="1.5" height="1.5"/><linearGradient id="SVGID_8_" gradientUnits="userSpaceOnUse" x1="37.2" y1="5.1" x2="40.2" y2="5.1"><stop offset="0" style="stop-color:#F5C82F"/><stop offset="1" style="stop-color:#F3A928"/></linearGradient><rect x="37.2" y="4.3" fill="url(#SVGID_8_)" width="3" height="1.5"/><linearGradient id="SVGID_9_" gradientUnits="userSpaceOnUse" x1="29.7" y1="18.6" x2="44.7" y2="18.6"><stop offset="0" style="stop-color:#F5C82F"/><stop offset="1" style="stop-color:#F3A928"/></linearGradient><polygon fill="url(#SVGID_9_)" points="29.7,7.3 29.7,10.3 31.2,10.3 31.2,8.8 43.2,8.8 43.2,28.3 34.2,28.3 34.2,29.8 44.7,29.8 44.7,7.3"/><linearGradient id="SVGID_10_" gradientUnits="userSpaceOnUse" x1="26.7" y1="18.6" x2="47.7" y2="18.6"><stop offset="0" style="stop-color:#F5C82F"/><stop offset="1" style="stop-color:#F3A928"/></linearGradient><path fill="url(#SVGID_10_)" d="M44.703 1.327h-15c-1.623 0-3 1.344-3 3v6h1.5v-6c0-0.828 0.691-1.5 1.5-1.5h15 c0.809 0 1.5 0.7 1.5 1.5v28.5c0 0.826-0.691 1.5-1.5 1.5h-10.5v1.5h10.5c1.623 0 3-1.344 3-3v-28.5 C47.703 2.7 46.3 1.3 44.7 1.327z"/></g></svg>