<svg xmlns="http://www.w3.org/2000/svg" xmlns:xlink="http://www.w3.org/1999/xlink" version="1.1" id="Layer_1" x="0px" y="0px" width="59.407px" height="47.653px" viewBox="0 0 59.407 47.653" enable-background="new 0 0 59.407 47.653" xml:space="preserve"><g><linearGradient id="SVGID_1_" gradientUnits="userSpaceOnUse" x1="26.8" y1="13.3" x2="44.1" y2="13.3"><stop offset="0" style="stop-color:#F5C82F"/><stop offset="1" style="stop-color:#F3A928"/></linearGradient><path fill="url(#SVGID_1_)" d="M35.458 6.22c3.9 0 7.1 3.2 7.1 7.076s-3.175 7.076-7.075 7.1 c-3.902 0-7.076-3.174-7.076-7.076S31.556 6.2 35.5 6.2 M35.458 4.647c-4.775 0-8.648 3.871-8.648 8.6 s3.873 8.6 8.6 8.648s8.648-3.871 8.648-8.648S40.233 4.6 35.5 4.647L35.458 4.647z"/><linearGradient id="SVGID_2_" gradientUnits="userSpaceOnUse" x1="17.4" y1="35.3" x2="53.5" y2="35.3"><stop offset="0" style="stop-color:#F5C82F"/><stop offset="1" style="stop-color:#F3A928"/></linearGradient><path fill="url(#SVGID_2_)" d="M53.54 40.859l-1.445-7.883c-1.629-5.24-6.649-9.459-16.637-9.459s-15.129 4.163-16.637 9.5 l-1.447 7.883c0 1.1 2.9 2.2 7.3 2.781l-0.071 0.688c0 1.5 4.9 2.8 10.8 2.775c5.991 0 10.85-1.242 10.85-2.775 l-0.072-0.688C50.666 43 53.5 42 53.5 40.859z M46.072 42.076l-0.458-4.406h-1.447l0.504 6.135l0.024 0.2 c-0.86 0.574-4.118 1.492-9.237 1.492s-8.379-0.918-9.238-1.492l0.024-0.234l0.504-6.135h-1.447l-0.458 4.4 c-3.854-0.553-5.32-1.217-5.814-1.516l1.326-7.221c1.553-5.322 6.912-8.25 15.104-8.25c8.042 0 13.4 2.9 15.1 8.3 l1.322 7.203C51.394 40.9 49.9 41.5 46.1 42.076z"/><linearGradient id="SVGID_3_" gradientUnits="userSpaceOnUse" x1="4.8" y1="32" x2="32.3" y2="32"><stop offset="0" style="stop-color:#F5C82F"/><stop offset="1" style="stop-color:#F3A928"/></linearGradient><path fill="url(#SVGID_3_)" d="M22.878 20.372c-9.987 0-15.127 4.162-16.637 9.459l-1.445 7.883c0 1.1 2.9 2.2 7.3 2.8 l-0.072 0.686c0 1.1 2.6 2.1 6.2 2.51c-1.251-0.551-2.008-1.207-2.312-1.986c-1.172-0.27-1.963-0.57-2.325-0.814 l0.528-6.369h-1.447l-0.458 4.408c-3.854-0.553-5.321-1.217-5.813-1.516l1.325-7.223c1.552-5.321 6.913-8.249 15.103-8.249 c2.248 0 4.3 0.2 6.1 0.684c1.065-0.243 2.197-0.419 3.381-0.532C29.871 21 26.8 20.4 22.9 20.372z"/><linearGradient id="SVGID_4_" gradientUnits="userSpaceOnUse" x1="14.2" y1="10.2" x2="29.7" y2="10.2"><stop offset="0" style="stop-color:#F5C82F"/><stop offset="1" style="stop-color:#F3A928"/></linearGradient><path fill="url(#SVGID_4_)" d="M25.79 16.593c-0.888 0.404-1.873 0.634-2.912 0.634c-3.9 0-7.075-3.174-7.075-7.074 c0-3.903 3.175-7.077 7.075-7.077c2.281 0 4.3 1.1 5.6 2.768c0.385-0.358 0.789-0.694 1.225-0.991 c-1.582-2.034-4.047-3.349-6.824-3.349c-4.775 0-8.648 3.871-8.648 8.649c0 4.8 3.9 8.6 8.6 8.6 c1.26 0 2.451-0.274 3.531-0.758C26.167 17.6 26 17.1 25.8 16.593z"/></g></svg>